/* XPM */
static char * nessus_xpm[] = {
"32 31 448 2",
"  	c None",
". 	c #FFFFFF",
"+ 	c #FFFFFE",
"@ 	c #FFFFFD",
"# 	c #FFFEF8",
"$ 	c #FFFEF5",
"% 	c #FFFEF4",
"& 	c #FFFEF6",
"* 	c #FFFFFA",
"= 	c #F9EBB4",
"- 	c #F3D158",
"; 	c #F1C939",
"> 	c #F0C220",
", 	c #F0BF18",
"' 	c #EEBD13",
") 	c #EEBD12",
"! 	c #EFBE16",
"~ 	c #F0C01A",
"{ 	c #F0C324",
"] 	c #F1C730",
"^ 	c #F0CA3D",
"/ 	c #F1CE4C",
"( 	c #F4D35B",
"_ 	c #F4D566",
": 	c #F5DA75",
"< 	c #F5DC80",
"[ 	c #F4DE86",
"} 	c #F4DF88",
"| 	c #F6E08D",
"1 	c #F6DF89",
"2 	c #F5DF89",
"3 	c #F4D76B",
"4 	c #F3D053",
"5 	c #F0CB3E",
"6 	c #F1C835",
"7 	c #F1D057",
"8 	c #FFFEF9",
"9 	c #F3D25B",
"0 	c #F0BA00",
"a 	c #F0BA01",
"b 	c #EEBA07",
"c 	c #FEF9E3",
"d 	c #F6DF8A",
"e 	c #E1AF07",
"f 	c #EFBA04",
"g 	c #FDF7DC",
"h 	c #F9F0C5",
"i 	c #EFBA02",
"j 	c #E4B106",
"k 	c #EFBA00",
"l 	c #E4B206",
"m 	c #CFA109",
"n 	c #EAB504",
"o 	c #EFBA05",
"p 	c #EEBF1A",
"q 	c #C89D0F",
"r 	c #AC860C",
"s 	c #ECB805",
"t 	c #CEA00C",
"u 	c #E5B205",
"v 	c #FEF9E2",
"w 	c #FFFDF3",
"x 	c #EFBD10",
"y 	c #AF8A0E",
"z 	c #EFBA01",
"A 	c #8B6E12",
"B 	c #DAAB08",
"C 	c #B8900C",
"D 	c #EFB901",
"E 	c #EDBA0A",
"F 	c #FEFCEA",
"G 	c #FCF6DC",
"H 	c #EFBA03",
"I 	c #EAB604",
"J 	c #E2B005",
"K 	c #917313",
"L 	c #70590F",
"M 	c #886B0F",
"N 	c #EBB705",
"O 	c #EDB803",
"P 	c #C5990D",
"Q 	c #EFBD11",
"R 	c #FEFDF2",
"S 	c #F9F1CB",
"T 	c #C2970D",
"U 	c #94740D",
"V 	c #E4B207",
"W 	c #93730C",
"X 	c #775E0F",
"Y 	c #A9840F",
"Z 	c #EBB704",
"` 	c #EFC01A",
" .	c #FBF5D9",
"..	c #C4990B",
"+.	c #EDB904",
"@.	c #D9AA09",
"#.	c #B9910A",
"$.	c #A9850C",
"%.	c #9B7F10",
"&.	c #9C8012",
"*.	c #AB890F",
"=.	c #C49A08",
"-.	c #E2B209",
";.	c #CEA209",
">.	c #C19709",
",.	c #C79C0A",
"'.	c #AC860A",
").	c #F1C529",
"!.	c #FEFCEF",
"~.	c #EFBB0A",
"{.	c #EEB903",
"].	c #97760E",
"^.	c #98780F",
"/.	c #AF8809",
"(.	c #BE9F19",
"_.	c #558F79",
":.	c #0C7CB0",
"<.	c #087CB3",
"[.	c #0877AC",
"}.	c #096997",
"|.	c #15576E",
"1.	c #595728",
"2.	c #85690E",
"3.	c #CB9F09",
"4.	c #C1970A",
"5.	c #E6B305",
"6.	c #FFFFF8",
"7.	c #EEC11E",
"8.	c #BB920A",
"9.	c #8F710F",
"0.	c #C39909",
"a.	c #ECB806",
"b.	c #C79B0A",
"c.	c #A0861A",
"d.	c #2B6D74",
"e.	c #096695",
"f.	c #076593",
"g.	c #076491",
"h.	c #0A557A",
"i.	c #0D4764",
"j.	c #086FA1",
"k.	c #228EAB",
"l.	c #B89F20",
"m.	c #785F0F",
"n.	c #5A4912",
"o.	c #BF960C",
"p.	c #F0C835",
"q.	c #FFFFFB",
"r.	c #F0C42B",
"s.	c #E6B306",
"t.	c #94740F",
"u.	c #C2980A",
"v.	c #EAB706",
"w.	c #AE880D",
"x.	c #D4A609",
"y.	c #669D75",
"z.	c #0089CA",
"A.	c #0383C0",
"B.	c #066C9F",
"C.	c #066594",
"D.	c #0676AC",
"E.	c #0482BE",
"F.	c #0E415B",
"G.	c #0C5E87",
"H.	c #529984",
"I.	c #D0A309",
"J.	c #4F4013",
"K.	c #786012",
"L.	c #EFC11C",
"M.	c #FFFFFC",
"N.	c #EFC328",
"O.	c #DCAC07",
"P.	c #9D7B0E",
"Q.	c #E7B406",
"R.	c #C09609",
"S.	c #97760F",
"T.	c #DEAE07",
"U.	c #E5B90D",
"V.	c #118AB7",
"W.	c #0A608C",
"X.	c #08608B",
"Y.	c #067CB5",
"Z.	c #067BB3",
"`.	c #0E4764",
" +	c #0C5A81",
".+	c #0385C2",
"++	c #132F3F",
"@+	c #0D7BAA",
"#+	c #D7B618",
"$+	c #EAB605",
"%+	c #6D5813",
"&+	c #5F4C13",
"*+	c #ECB804",
"=+	c #F0C62E",
"-+	c #EEC01E",
";+	c #E2B006",
">+	c #B48D10",
",+	c #EEB904",
"'+	c #94740E",
")+	c #A7830D",
"!+	c #C5B226",
"~+	c #09709E",
"{+	c #0E4967",
"]+	c #057DB7",
"^+	c #11394E",
"/+	c #0F4D6C",
"(+	c #0B5F87",
"_+	c #B0AD36",
":+	c #5A4914",
"<+	c #8E710F",
"[+	c #F4D974",
"}+	c #ECBC16",
"|+	c #C4990F",
"1+	c #947610",
"2+	c #886C0F",
"3+	c #C8B324",
"4+	c #0C628A",
"5+	c #0E5070",
"6+	c #0579B3",
"7+	c #076B9B",
"8+	c #0A557B",
"9+	c #096693",
"0+	c #0F4E6D",
"a+	c #0A628B",
"b+	c #B1AD35",
"c+	c #B79011",
"d+	c #393015",
"e+	c #F5DB7B",
"f+	c #FEFCF1",
"g+	c #E8B60B",
"h+	c #EEB902",
"i+	c #382F15",
"j+	c #9B7B11",
"k+	c #E8BA0B",
"l+	c #1886AB",
"m+	c #0F3B53",
"n+	c #047FBA",
"o+	c #0188C9",
"p+	c #0575AC",
"q+	c #047FB9",
"r+	c #0386C4",
"s+	c #10394F",
"t+	c #0D80B0",
"u+	c #D8B617",
"v+	c #D9AA08",
"w+	c #6C5714",
"x+	c #4A3C14",
"y+	c #A8840C",
"z+	c #FEFBEC",
"A+	c #EEBA04",
"B+	c #D9AA07",
"C+	c #5E4C13",
"D+	c #645012",
"E+	c #D7A809",
"F+	c #74A067",
"G+	c #0480BB",
"H+	c #0A5981",
"I+	c #086898",
"J+	c #047CB6",
"K+	c #0380BC",
"L+	c #0571A5",
"M+	c #0B557A",
"N+	c #0676AD",
"O+	c #5B9B7B",
"P+	c #EAB705",
"Q+	c #95760F",
"R+	c #473A14",
"S+	c #A2800D",
"T+	c #EDB804",
"U+	c #F2CE4A",
"V+	c #FEFBEB",
"W+	c #B18B0C",
"X+	c #524313",
"Y+	c #7B6211",
"Z+	c #D6A709",
"`+	c #E5B90C",
" @	c #3E9593",
".@	c #0089C9",
"+@	c #0287C6",
"@@	c #057CB5",
"#@	c #0577AF",
"$@	c #0189C9",
"%@	c #2C8EA3",
"&@	c #938020",
"*@	c #5C4A12",
"=@	c #F1CC45",
"-@	c #FEFAE9",
";@	c #EDB903",
">@	c #B8910A",
",@	c #6F5811",
"'@	c #6C5610",
")@	c #9D7B0C",
"!@	c #BC9B17",
"~@	c #639873",
"{@	c #1189BB",
"]@	c #0585C2",
"^@	c #047EB9",
"/@	c #086C9A",
"(@	c #205966",
"_@	c #685D1F",
":@	c #AE890B",
"<@	c #F1CD47",
"[@	c #FEFAE8",
"}@	c #E9B606",
"|@	c #C79C08",
"1@	c #A27F0B",
"2@	c #947509",
"3@	c #877114",
"4@	c #8B7819",
"5@	c #A2820F",
"6@	c #C59B09",
"7@	c #E8B507",
"8@	c #F1C937",
"9@	c #FDF9E5",
"0@	c #C99D0A",
"a@	c #947510",
"b@	c #695412",
"c@	c #5B4A13",
"d@	c #D3A508",
"e@	c #FDF8E1",
"f@	c #B68F0D",
"g@	c #5E4C16",
"h@	c #EBB706",
"i@	c #A7840F",
"j@	c #7A6111",
"k@	c #E6B406",
"l@	c #DBAB0A",
"m@	c #D6A70B",
"n@	c #D7A80B",
"o@	c #DDAC09",
"p@	c #EAB603",
"q@	c #DAAA0A",
"r@	c #F0BA02",
"s@	c #EEBB0C",
"t@	c #FEFCEC",
"u@	c #FCF7DD",
"v@	c #B68F0E",
"w@	c #776016",
"x@	c #C59B0D",
"y@	c #685416",
"z@	c #CDA009",
"A@	c #534313",
"B@	c #634F11",
"C@	c #886C10",
"D@	c #6D5712",
"E@	c #6A5613",
"F@	c #AC870A",
"G@	c #604D12",
"H@	c #6F5A14",
"I@	c #B48D0A",
"J@	c #403516",
"K@	c #685413",
"L@	c #B9920F",
"M@	c #413614",
"N@	c #745C0F",
"O@	c #DBAA06",
"P@	c #FCF4D5",
"Q@	c #FCF6DB",
"R@	c #876B12",
"S@	c #59491A",
"T@	c #77601B",
"U@	c #634F16",
"V@	c #A9860F",
"W@	c #614E12",
"X@	c #A07F0D",
"Y@	c #635012",
"Z@	c #C0960B",
"`@	c #3F3518",
" #	c #675415",
".#	c #C3990B",
"+#	c #785F10",
"@#	c #705A11",
"##	c #DFAD06",
"$#	c #F8ECB9",
"%#	c #FBF6D9",
"&#	c #C59A0D",
"*#	c #685417",
"=#	c #AD880C",
"-#	c #5D4C15",
";#	c #9D7D12",
">#	c #CA9D09",
",#	c #B28C0B",
"'#	c #927515",
")#	c #5C4A13",
"!#	c #8A6E17",
"~#	c #695413",
"{#	c #493C15",
"]#	c #9B7B12",
"^#	c #3D3418",
"/#	c #9A790E",
"(#	c #625018",
"_#	c #A7830C",
":#	c #F7E6A2",
"<#	c #DAAA06",
"[#	c #C3980A",
"}#	c #E0AE06",
"|#	c #BD940B",
"1#	c #BD950A",
"2#	c #AA850C",
"3#	c #E6B304",
"4#	c #CC9F08",
"5#	c #A5820B",
"6#	c #A6830B",
"7#	c #E1AF06",
"8#	c #D2A408",
"9#	c #A8840B",
"0#	c #AF8A0D",
"a#	c #DEAD05",
"b#	c #B08A0A",
"c#	c #F7E49D",
"d#	c #FEF9E7",
"e#	c #F7EAB2",
"f#	c #EEBC0E",
"g#	c #EEBD11",
"h#	c #F0C322",
"i#	c #F0C526",
"j#	c #F0C21D",
"k#	c #F2C21A",
"l#	c #F1C21E",
"m#	c #EFC21C",
"n#	c #F0BE0C",
"o#	c #F0BC05",
"p#	c #EFBC0F",
"q#	c #FDFAE8",
"r#	c #F5DB7D",
"s#	c #F1C93A",
"t#	c #F3D35B",
"u#	c #F4D76C",
"v#	c #F4D871",
"w#	c #F6DC80",
"x#	c #F7E293",
"y#	c #F8EAB2",
"z#	c #FAF1CC",
"A#	c #FDF9E2",
"B#	c #FAF2D2",
"C#	c #F6E190",
"D#	c #F6E193",
"E#	c #F7E49B",
"F#	c #F6E7A5",
"G#	c #F2D872",
"H#	c #F2D564",
"I#	c #F3D871",
"J#	c #F3D564",
"K#	c #F1C734",
"L#	c #EEBB0A",
"M#	c #F5DD84",
"N#	c #FEFCEE",
"O#	c #FBF3D0",
". . . + @ # $ % % & * + + . . . . . . . . . . . . . . + + . . . ",
". = - ; > , ' ) ) ! ~ { ] ^ / ( _ : < [ } [ | 1 2 3 4 5 6 7 8 . ",
". 9 0 0 0 0 0 0 0 0 0 0 0 0 0 0 0 0 0 0 0 0 a 0 0 0 0 0 0 b c . ",
". d 0 0 0 0 0 0 0 0 0 0 0 0 0 0 0 0 e 0 0 0 0 0 0 0 0 0 0 f g . ",
". h i 0 0 0 0 0 0 0 0 0 0 j k 0 0 l m 0 0 0 0 n 0 0 0 0 0 o g . ",
". & p 0 0 0 0 0 0 0 0 0 0 q 0 0 0 r s 0 0 0 t u 0 0 0 0 0 b v . ",
". w x 0 0 0 0 0 0 0 0 0 0 y 0 0 z A a 0 0 B C 0 0 D 0 0 0 E F . ",
". G H 0 0 0 0 0 0 I J 0 0 K a 0 s L 0 0 a M N 0 O P a 0 0 Q R . ",
". S i 0 0 0 0 0 0 i T 0 0 U N 0 V W 0 0 B X 0 a Y Z 0 0 0 ` * . ",
".  .H 0 0 0 0 0 0 0 ..+.@.#.$.%.&.*.=.-.;.>.0 ,.'.0 0 0 0 ).@ . ",
". !.~.0 0 0 0 0 {.>.].^./.(._.:.<.[.}.|.1.2.3.4.5.0 0 0 0 ^ + . ",
". 6.7.0 0 0 i 8.9.0.a.b.c.d.e.f.g.h.i.j.k.l.m.n.o.a 0 0 0 p.+ . ",
". q.r.0 0 s.t.u.v.w.Y x.y.z.A.B.C.D.E.F.G.H.H I.J.K.I 0 0 L.M.. ",
". q.N.0 O.P.Q.R.S.T.0 U.V.W.X.Y.Z.`. +.+++@+#+0 $+%+&+*+0 =+@ . ",
". 6.-+;+>+,+'+)+i 0 0 !+~+{+z.z.z.]+^+z./+(+_+0 0 O :+<+0 [+. . ",
". $ }+|+i 1+2+a 0 0 0 3+4+5+z.6+7+8+9+z.0+a+b+0 0 a c+d+H e+. . ",
". f+g+h+*+i+j+i 0 0 0 k+l+m+n+o+p+q+z.r+s+t+u+0 v+w+x+y+z 4 + . ",
". z+A+0 0 B+C+D+E+0 0 a F+G+H+I+J+K+L+M+N+O+P+Q+R+S+T+0 0 U++ . ",
". V+f 0 0 0 i W+X+Y+Z+a `+ @.@+@@@#@E.$@%@&@*@Q+$+0 0 0 0 =@+ . ",
". -@f 0 0 0 0 0 ;@>@,@'@)@!@~@{@]@^@/@(@_@:@N 0 0 0 0 0 0 <@+ . ",
". [@f 0 0 0 0 a z 0 a }@|@1@2@3@4@5@6@7@a 0 0 0 0 0 0 0 0 8@+ . ",
". 9@f 0 0 0@a@b@c@d@0 0 0 0 0 0 0 0 0 0 0 0 0 0 0 0 0 0 0 ` * . ",
". e@H 0 0 f@g@h@i@j@0 k@l@a {.m@Z T+m@T+n@a o@p@s.q@r@0 0 s@t@. ",
". u@H 0 0 v@w@0 x@y@z@A@B@C@D@E@F@G@H@I@J@o K@L@M@N@O@0 0 i P@. ",
". Q@H 0 0 v@w@0 x@y@R@S@T@U@V@W@C X@Y@Z@`@o  #.#+#@###0 0 0 $#. ",
". %#H 0 0 v@w@0 &#*#=#-#;#>#,#'#)#=#!#~#{#]#^#.#/#(#_#0 0 0 :#. ",
". u@H 0 0 <#[#0 }#|#i 1#2#3#4#5#O.|@6#7#8#9#0#a#,#b#O 0 0 0 c#. ",
". d#f 0 0 0 0 0 0 0 0 0 0 0 0 0 0 0 0 0 0 0 0 0 0 0 0 0 0 0 e#. ",
". R f#0 0 0 0 0 0 0 a b g#h#i#j#k#l#m#n#o#0 0 0 0 0 0 0 0 p#q#. ",
". + r#s#t#u#v#w#x#y#z#A#R M.B#C#D#E#F#G#H#3 I#[+J#K#L#i o M#+ . ",
". . + + . . . . . . . . . . . . . . . . . . . . . @ N#O#Q@@ . . "};
