/* XPM */
static char *openvas[]={
"32 32 451 2",
"cE c None",
"e3 c None",
"Qt c None",
"ae c #545493",
"eR c #a3e585",
"e1 c #baf99b",
"eU c #beebaa",
"eJ c #96e273",
"eY c #9de67b",
"cU c #a2e38c",
"e5 c #a2ed7f",
"#e c #232378",
"#z c #242479",
"eZ c #8ed66e",
"fa c #93df70",
"c1 c #9dec7c",
"e6 c #a1f27a",
".I c #1d1d76",
".a c #232379",
"a0 c #2a2a5e",
"e7 c #a0f17a",
"e4 c #a4f87a",
"e0 c #8cda68",
"e2 c #9cef74",
"e8 c #9cf073",
".s c #17176d",
"bu c #29295f",
"cg c #545454",
"eX c #8edf69",
"eS c #90e16a",
"eT c #90e26a",
"f# c #9df274",
"f. c #9ef374",
"e9 c #9ef474",
"cw c #525252",
"cQ c #81c971",
".b c #10106c",
"ck c #0e0e55",
"cN c #0d0d6a",
"aw c #0a0a6a",
".# c #111170",
"cX c #83d56b",
".i c #0d0d62",
"eF c #86d969",
"cJ c #0b0b64",
"cF c #0b0b6a",
"e# c #51836b",
"eD c #619d6a",
"eA c #77ce4f",
"b4 c #2c2c43",
"cz c #3c3c3c",
"eo c #7ac76a",
"dR c #7bcf5d",
"bf c #1b1b48",
"ci c #080864",
"ax c #080861",
"cG c #080869",
"dW c #78c764",
"cl c #393939",
".d c #060668",
".J c #090967",
"cV c #91f067",
".G c #050566",
"dy c #50836a",
".h c #050565",
".r c #080858",
"cx c #040466",
"cj c #05055b",
"dJ c #70bf5f",
"eQ c #69b15d",
"eK c #6db85f",
"cH c #040466",
"cD c #424242",
"ds c #6ab65c",
"dG c #589660",
"cA c #3c3c3c",
"eB c #5c9a65",
"dL c #71be5f",
".Y c #070750",
"dZ c #91f361",
"d0 c #92f364",
"#g c #030366",
"au c #08085c",
"ej c #84e556",
"ac c #020266",
".t c #101063",
"bI c #020266",
"eW c #5a9762",
".f c #020266",
".F c #09095e",
"dl c #60a065",
"dH c #579263",
"el c #78cf58",
"ek c #7cd659",
"dc c #69af64",
"ab c #080859",
"ad c #020265",
"bK c #010165",
"b1 c #010164",
".g c #020264",
"c4 c #4a7b65",
"c5 c #558e64",
"bL c #13134e",
"en c #528b61",
"aJ c #0b0b55",
"ex c #5da259",
"d3 c #5e9e63",
".j c #1c1c70",
"dX c #538c63",
"#d c #090958",
"dp c #4a7c64",
"c8 c #5ea15d",
"c7 c #5ea35b",
"cB c #3a3a3a",
"cC c #3c3c3c",
"c2 c #4d8166",
"b0 c #48484e",
".q c #141464",
"dx c #467763",
"dt c #559062",
"df c #589561",
"di c #406c64",
".e c #010165",
"aK c #303076",
"cZ c #6db763",
"#f c #020265",
"cv c #474748",
"#B c #010165",
"cK c #010164",
"cm c #28283f",
"dr c #5c9c60",
"d. c #59995f",
"#T c #09095e",
"cI c #020261",
"cT c #365a65",
"ei c #3f6a62",
"cP c #010160",
"dC c #477666",
"af c #404084",
"b3 c #000065",
"eb c #3d6864",
"#y c #0b0b5d",
"d4 c #345664",
"dk c #3f6b64",
"dz c #2b4865",
"eV c #3d6862",
".c c #000065",
"du c #1b2d66",
"ch c #000065",
"b5 c #1b1b4c",
"et c #203565",
"cM c #000063",
"cR c #365a65",
"#A c #010166",
".Z c #60609c",
"dj c #355964",
"cY c #447165",
"aZ c #08085b",
"av c #000065",
"c0 c #3f6965",
"cO c #000062",
"bv c #272762",
"eH c #65ad5c",
".p c #2f2f71",
"dN c #54915d",
".k c #50508f",
"dP c #569950",
"dY c #264065",
"es c #345962",
"d9 c #46795c",
".H c #000065",
"dS c #345864",
"cf c #42424e",
"dn c #355964",
"dD c #467661",
"a1 c #3c3c78",
".E c #25256e",
"bg c #3a3a75",
".X c #1b1b65",
"dg c #396064",
"bH c #272757",
"bJ c #000066",
"cW c #497a65",
"cn c #222249",
"c3 c #305164",
"dV c #2d4a65",
"c6 c #233b65",
"dd c #355a65",
"#U c #8585af",
"be c #0b0b5b",
"dM c #2b4865",
"ed c #2e4f62",
"d8 c #2e5357",
"db c #315365",
"ep c #315463",
"e. c #294760",
"eI c #396162",
"eC c #3f6c5f",
"d2 c #31555e",
"dw c #33585f",
"eg c #2a4666",
"dB c #2d4c65",
"em c #2a4762",
"ee c #2b4963",
"cS c #315265",
"eG c #305163",
"ef c #294565",
"d# c #305065",
"ew c #2b4963",
".o c #3b3b77",
".n c #4b4b86",
".m c #565691",
".l c #575793",
"da c #2c4966",
"dh c #2d4a66",
"de c #2e4e65",
"cu c #33334b",
"at c #0b0b5d",
"dQ c #243c65",
"dF c #294762",
"ec c #305164",
"eE c #406e61",
".u c #6a6a9d",
"cy c #000065",
"dU c #294466",
"#h c #9393ba",
"dm c #2a4763",
"ey c #2e4f60",
"dI c #2a4961",
"eP c #2e4f62",
".K c #9696b9",
"bt c #161659",
"eh c #203565",
"bM c #3c3c70",
"dv c #294761",
"dK c #284464",
"ea c #2e4f61",
"d1 c #294562",
"dq c #284466",
"eL c #3f6d61",
"dT c #294665",
"#C c #9595b9",
"c9 c #253f63",
"co c #272753",
"do c #243c65",
"dA c #3a665f",
"ay c #8d8db1",
"b6 c #323263",
".D c #3a3c7c",
"ez c #3c675d",
"dE c #355b5f",
"#c c #232365",
"eM c #427162",
"b2 c #000065",
"aa c #131362",
"dO c #2e4e61",
".W c #363977",
"#x c #232369",
"cL c #000066",
"bs c #090957",
"bG c #09095b",
"bd c #0a0a56",
"aY c #0b0b58",
"aI c #0b0b5d",
"bF c #101050",
"bY c #12125a",
"br c #121751",
"as c #14145c",
"bZ c #15155c",
"cd c #17175e",
"bX c #181853",
"ce c #1b1b59",
"#S c #1e1e66",
"bW c #1e2157",
"cs c #212157",
"cc c #22225e",
"cr c #23235b",
"d6 c #243d62",
"ct c #252551",
"cq c #26265d",
"eu c #264262",
"aH c #273a5b",
"cp c #29295a",
"cb c #29295e",
"bE c #293d58",
"ev c #2c4c60",
"eq c #2c4d61",
"er c #2d4e61",
"eO c #2f4f63",
"eN c #2f5063",
"ca c #303062",
"a# c #344c62",
"bc c #355359",
"c# c #393966",
"d5 c #3a665c",
"d7 c #3b6953",
"aX c #3d625b",
"c. c #41416c",
"b7 c #464676",
"bV c #466b60",
"#b c #475a75",
"b9 c #4b4b73",
"b8 c #52527a",
"#R c #527b6c",
"bP c #536179",
"#w c #557971",
"bO c #595980",
".C c #5c6d86",
"bN c #666689",
"bU c #66a069",
".V c #678584",
"bQ c #68897c",
"bx c #696b8b",
"bi c #697d85",
"bw c #6b6b90",
"by c #6c8982",
"a3 c #729780",
"aM c #749f7e",
".B c #759b84",
"bR c #77a67d",
"bT c #78b773",
".w c #7aa983",
"ar c #7ccd66",
"bS c #7db87a",
".x c #7ec173",
"az c #7f9a90",
".A c #83b77f",
"bh c #85859f",
".L c #85a098",
"ah c #85da69",
"bD c #86df67",
"bq c #86e066",
".v c #8790aa",
".y c #8bd278",
".z c #8ccd7c",
".M c #8cea67",
".1 c #8fee66",
"a2 c #9293aa",
"#D c #93bf93",
"#i c #96bc9b",
"#j c #98fe67",
"#V c #99b1a6",
"#W c #99fe67",
".2 c #99fe68",
"#E c #99ff67",
"bp c #99ff68",
"#a c #9bd68c",
"bj c #9cd98c",
".N c #9cfe6b",
"bb c #9cff6c",
"bz c #9dd791",
"#k c #9dff6c",
"a. c #9ffb73",
"aL c #a0a0b6",
"#F c #a0ff71",
".U c #a1db93",
"aG c #a2ff74",
"#X c #a2ff75",
"ai c #a3ff75",
".3 c #a3ff76",
"bC c #a5ff79",
".O c #a6ff7a",
"ba c #a8ff7e",
"#l c #a9ff7f",
"#Q c #abfc82",
"aN c #abfd82",
"aW c #adff85",
"bo c #adff86",
"#v c #aef78c",
".P c #aefd87",
".4 c #aeff86",
"a4 c #aff98c",
"#9 c #afff88",
".0 c #b0b9c3",
"aF c #b0ff89",
"#Y c #b0ff8a",
"aj c #b1ff8a",
".Q c #b4fb91",
"b# c #b5ff90",
"#m c #b5ff91",
"ag c #b8b9c9",
".R c #b8f998",
".5 c #b8fe96",
"bn c #b8ff95",
"#P c #b9fe96",
"aO c #b9ff96",
"aV c #baff99",
"#G c #bbff99",
".S c #bcfb9c",
".T c #bcfc9d",
"bA c #bcfe9c",
"#8 c #bdff9c",
"bB c #bdff9d",
"aE c #bdff9e",
"#u c #befe9f",
"#Z c #beff9e",
"aq c #beff9f",
"## c #bffe9f",
"ak c #bfff9f",
"b. c #c0ffa1",
"bm c #c0ffa2",
".6 c #c1fea2",
"#n c #c1ffa2",
"aP c #c5ffa9",
"#O c #c5ffaa",
"#. c #c6ffaa",
"bl c #c6ffab",
".7 c #c7feac",
"aU c #c7ffab",
"#H c #c7ffac",
"#t c #c9ffae",
".9 c #cafeb0",
".8 c #cafeb1",
"bk c #caffaf",
"a9 c #caffb0",
"#7 c #caffb1",
"#o c #cbffb1",
"#0 c #cbffb2",
"al c #cdffb4",
"a5 c #d1ffba",
"#s c #d1ffbb",
"#N c #d2ffbb",
"a8 c #d2ffbc",
"aT c #d2ffbd",
"#p c #d3ffbd",
"#I c #d3ffbe",
"a6 c #d6ffc2",
"a7 c #d6ffc3",
"#r c #d7ffc3",
"#q c #d7ffc4",
"#6 c #d8ffc5",
"aD c #d8ffc6",
"#1 c #d9ffc6",
"ap c #daffc8",
"am c #daffc9",
"aQ c #dcffca",
"#M c #dcffcc",
"aS c #ddffcc",
"#J c #ddffcd",
"aR c #e2ffd5",
"#L c #e3ffd5",
"#K c #e3ffd6",
"aA c #e4ffd8",
"#5 c #e5ffd8",
"#2 c #e5ffd9",
"an c #e8ffde",
"aB c #eeffe6",
"aC c #eeffe7",
"#4 c #efffe7",
"#3 c #efffe8",
"ao c #f5fff1",
"QtQtQtQtQtQtQtQtQtQtQtQtQtQtQtQtQtQtQtQtQtQtQtQtQtQtQtQtQtQtQtQt",
"QtQtQtQtQtQtQtQtQtQtQtQt.#.aQtQtQtQtQtQtQtQtQtQtQtQtQtQtQtQtQtQt",
"QtQtQtQt.b.c.dQtQtQtQtQt.e.fQtQtQtQtQtQtQtQtQtQtQtQtQtQtQtQtQtQt",
"QtQtQtQtQt.g.h.i.j.k.l.m.n.o.p.q.rQtQtQt.sQtQtQtQtQtQtQtQtQtQtQt",
"QtQtQtQtQtQt.t.u.v.w.x.y.z.A.B.C.D.E.F.G.H.IQtQtQtQtQtQtQtQtQtQt",
"QtQtQtQtQt.J.K.L.M.N.O.P.Q.R.S.T.U.V.W.X.YQtQtQtQtQtQtQtQtQtQtQt",
"QtQtQtQtQt.Z.0.1.2.3.4.5.6.7.8.9#.###a#b#c#dQtQtQtQtQtQtQtQtQtQt",
"Qt#e#f#gQt#h#i#j#k#l#m#n#o#p#q#r#s#t#u#v#w#x#yQtQtQtQtQtQtQtQtQt",
"Qt#z#A#BQt#C#D#E#F.4#G#H#I#J#K#L#M#N#O#P#Q#R#S#TQtQtQtQtQtQtQtQt",
"QtQtQtQtQt#U#V#W#X#Y#Z#0#1#2#3#4#5#6#7#8#9a.a#aaabacadaeQtQtQtQt",
"QtQtQtQtQtafagahaiajakalamanaoaoanapalaqajaiarasatauavawQtQtQtQt",
"QtQtQtQtQtaxayaza.#9#8#o#6aAaBaC#5aD#0aEaFaG#jaHaIaJQtQtQtQtQtQt",
"QtQtQtQtQtQtaKaLaMaNaOaP#saQaRaRaSaTaUaVaW#F#EaXaYaZQtQtQtQtQtQt",
"QtQtQtQtQtQta0a1a2a3a4#Z#ta5a6a7a8a9b.b#babb#EbcbdbeQtQtQtQtQtQt",
"QtQtQtQtQtQtQtbfbgbhbibjaqaPbka9blbmbnboaibpbqbrbsbtQtQtQtQtQtQt",
"QtQtQtQtQtQtQtQtbubvbwbxbybzbAbBaV#m.4bC.NbDbEbFbGbHQtQtQtQtQtQt",
"QtQtQtQtQtbIbJbKQtQtbLbMbNbObPbQbRbSbTbUbVbWbXbYbZb0QtQtQtQtQtQt",
"QtQtQtQtQtb1b2b3QtQtQtb4b5b6b7b8b9c.c#cacbcccdcecfcgQtbIchciQtQt",
"QtQtQtQtQtQtcjckQtQtQtQtQtclcmcncocpcqcrcsctcucvcwQtQtcxcychQtQt",
"QtQtQtQtQtQtQtQtQtQtQtQtQtQtQtQtczcAcBcCcCcDcEQtQtQtQtQtcFcGQtQt",
"QtQtQtQtQtQtQtQtQtQtQtQtQtQtQtQtQtQtcHcIcJQtQtQtQtQtQtQtQtQtQtQt",
"QtQtQtQtQtQtQtQtQtQtQtQtQtQtQtQtQtQtcKcLcMQtQtQtQtQtQtQtQtQtQtQt",
"QtQtQtQtQtQtQtQtQtQtQtQtQtQtQtQtQtQtcNcOcPQtQtQtQtQtQtQtQtQtQtQt",
"QtQtQtQtQtQtQtQtQtQtQtQtQtQtQtQtQtQtQtQtQtQtQtQtQtQtQtQtQtQtQtQt",
"QtQtQtQtQtQtQtQtQtQtQtQtQtQtQtQtQtQtQtQtQtQtQtQtQtQtQtQtQtQtQtQt",
"QtQtQtQtQtQtQtQtQtQtQtQtQtQtQtQtQtQtQtQtQtQtQtQtQtQtQtQtQtQtQtQt",
"cQcRcScScTcUQtQtQtQtQtQtQtQtQtQtQtcVcWcXQtQtcYcZc0c1Qtc2c3c4QtQt",
"c5c6c7c8c9d.d#dadbdcdddadedfdgdadhdidjdkQtdldmdndodpQtdqdrdsQtQt",
"dtduQtQtdvdwdxdydzdAdBdCdDdEdFdGdHdIdJdKdLdMdNdOdPdQdRdSdTdUdVdW",
"dXdYdZd0d1d2d3dZd4d5d6d7d8d9e.Qte#eaQtebecedeeefegeheiejekelemen",
"eoepeqereseteuevewexeyezeAeBeCQteDeEQteFeGeHeIeJQteKeLeMeNeOePeQ",
"QteReSeTeUeVeWeXeYQteZe0Qte1e2Qte3e4QtQte5e6e7QtQtQte8e9f.f#faQt"};
