<svg aria-labelledby="chart-title-my-svg" aria-roledescription="er" role="graphics-document document" viewBox="0 -62 2676.947265625 1402" style="max-width: 2676.95px; background-color: white;" xmlns:xlink="http://www.w3.org/1999/xlink" xmlns="http://www.w3.org/2000/svg" width="100%" id="my-svg"><title id="chart-title-my-svg">OpenVASD / nasl-cli overview</title><style>#my-svg{font-family:"trebuchet ms",verdana,arial,sans-serif;font-size:16px;fill:#333;}#my-svg .error-icon{fill:#552222;}#my-svg .error-text{fill:#552222;stroke:#552222;}#my-svg .edge-thickness-normal{stroke-width:2px;}#my-svg .edge-thickness-thick{stroke-width:3.5px;}#my-svg .edge-pattern-solid{stroke-dasharray:0;}#my-svg .edge-pattern-dashed{stroke-dasharray:3;}#my-svg .edge-pattern-dotted{stroke-dasharray:2;}#my-svg .marker{fill:#333333;stroke:#333333;}#my-svg .marker.cross{stroke:#333333;}#my-svg svg{font-family:"trebuchet ms",verdana,arial,sans-serif;font-size:16px;}#my-svg .entityBox{fill:#ECECFF;stroke:#9370DB;}#my-svg .attributeBoxOdd{fill:#ffffff;stroke:#9370DB;}#my-svg .attributeBoxEven{fill:#f2f2f2;stroke:#9370DB;}#my-svg .relationshipLabelBox{fill:hsl(80, 100%, 96.2745098039%);opacity:0.7;background-color:hsl(80, 100%, 96.2745098039%);}#my-svg .relationshipLabelBox rect{opacity:0.5;}#my-svg .relationshipLine{stroke:#333333;}#my-svg .entityTitleText{text-anchor:middle;font-size:18px;fill:#333;}#my-svg #MD_PARENT_START{fill:#f5f5f5!important;stroke:#333333!important;stroke-width:1;}#my-svg #MD_PARENT_END{fill:#f5f5f5!important;stroke:#333333!important;stroke-width:1;}#my-svg :root{--mermaid-font-family:"trebuchet ms",verdana,arial,sans-serif;}</style><g/><defs><marker orient="auto" markerHeight="240" markerWidth="190" refY="7" refX="0" id="MD_PARENT_START"><path d="M 18,7 L9,13 L1,7 L9,1 Z"/></marker></defs><defs><marker orient="auto" markerHeight="28" markerWidth="20" refY="7" refX="19" id="MD_PARENT_END"><path d="M 18,7 L9,13 L1,7 L9,1 Z"/></marker></defs><defs><marker orient="auto" markerHeight="18" markerWidth="18" refY="9" refX="0" id="ONLY_ONE_START"><path d="M9,0 L9,18 M15,0 L15,18" fill="none" stroke="gray"/></marker></defs><defs><marker orient="auto" markerHeight="18" markerWidth="18" refY="9" refX="18" id="ONLY_ONE_END"><path d="M3,0 L3,18 M9,0 L9,18" fill="none" stroke="gray"/></marker></defs><defs><marker orient="auto" markerHeight="18" markerWidth="30" refY="9" refX="0" id="ZERO_OR_ONE_START"><circle r="6" cy="9" cx="21" fill="white" stroke="gray"/><path d="M9,0 L9,18" fill="none" stroke="gray"/></marker></defs><defs><marker orient="auto" markerHeight="18" markerWidth="30" refY="9" refX="30" id="ZERO_OR_ONE_END"><circle r="6" cy="9" cx="9" fill="white" stroke="gray"/><path d="M21,0 L21,18" fill="none" stroke="gray"/></marker></defs><defs><marker orient="auto" markerHeight="36" markerWidth="45" refY="18" refX="18" id="ONE_OR_MORE_START"><path d="M0,18 Q 18,0 36,18 Q 18,36 0,18 M42,9 L42,27" fill="none" stroke="gray"/></marker></defs><defs><marker orient="auto" markerHeight="36" markerWidth="45" refY="18" refX="27" id="ONE_OR_MORE_END"><path d="M3,9 L3,27 M9,18 Q27,0 45,18 Q27,36 9,18" fill="none" stroke="gray"/></marker></defs><defs><marker orient="auto" markerHeight="36" markerWidth="57" refY="18" refX="18" id="ZERO_OR_MORE_START"><circle r="6" cy="18" cx="48" fill="white" stroke="gray"/><path d="M0,18 Q18,0 36,18 Q18,36 0,18" fill="none" stroke="gray"/></marker></defs><defs><marker orient="auto" markerHeight="36" markerWidth="57" refY="18" refX="39" id="ZERO_OR_MORE_END"><circle r="6" cy="18" cx="9" fill="white" stroke="gray"/><path d="M21,18 Q39,0 57,18 Q39,36 21,18" fill="none" stroke="gray"/></marker></defs><path style="stroke: gray; fill: none;" marker-start="url(#ONLY_ONE_START)" marker-end="url(#ONLY_ONE_END)" d="M1920.048828125,92.5L1907.548828125,101.25C1895.048828125,110,1870.048828125,127.5,1874.2154947916667,145.97222222222223C1878.3821614583333,164.44444444444446,1911.7154947916667,183.8888888888889,1928.3821614583333,193.61111111111111L1945.048828125,203.33333333333334" class="er relationshipLine"/><path style="stroke: gray; fill: none;" marker-start="url(#ONLY_ONE_START)" marker-end="url(#ONLY_ONE_END)" d="M1959.3345424107142,95L1956.9535900297617,103.33333333333333C1954.5726376488094,111.66666666666667,1949.8107328869046,128.33333333333334,1930.7631138392856,146.38888888888889C1911.7154947916667,164.44444444444446,1878.3821614583333,183.8888888888889,1861.7154947916667,193.61111111111111L1845.048828125,203.33333333333334" class="er relationshipLine"/><path style="stroke: gray; fill: none;" marker-start="url(#ONLY_ONE_START)" marker-end="url(#ONLY_ONE_END)" d="M2002.191685267857,95L2009.3345424107144,103.33333333333333C2016.4773995535713,111.66666666666667,2030.7631138392856,128.33333333333334,2058.739304315476,147.08333333333334C2086.7154947916665,165.83333333333334,2128.3821614583335,186.66666666666666,2149.2154947916665,197.08333333333334L2170.048828125,207.5" class="er relationshipLine"/><path style="stroke: gray; fill: none;" marker-start="url(#ONLY_ONE_START)" marker-end="url(#ONLY_ONE_END)" d="M2345.048828125,75L2311.7154947916665,86.66666666666667C2278.3821614583335,98.33333333333333,2211.7154947916665,121.66666666666667,2161.7154947916665,143.05555555555557C2111.7154947916665,164.44444444444446,2078.3821614583335,183.8888888888889,2061.7154947916665,193.61111111111111L2045.048828125,203.33333333333334" class="er relationshipLine"/><path style="stroke: gray; fill: none;" marker-start="url(#ONLY_ONE_START)" marker-end="url(#ONLY_ONE_END)" d="M2395.048828125,95L2395.048828125,103.33333333333333C2395.048828125,111.66666666666667,2395.048828125,128.33333333333334,2395.048828125,151.25C2395.048828125,174.16666666666666,2395.048828125,203.33333333333334,2395.048828125,232.5C2395.048828125,261.6666666666667,2395.048828125,290.8333333333333,2395.048828125,320C2395.048828125,349.1666666666667,2395.048828125,378.3333333333333,2395.048828125,407.5C2395.048828125,436.6666666666667,2395.048828125,465.8333333333333,2395.048828125,495C2395.048828125,524.1666666666666,2395.048828125,553.3333333333334,2395.048828125,582.5C2395.048828125,611.6666666666666,2395.048828125,640.8333333333334,2395.048828125,670C2395.048828125,699.1666666666666,2395.048828125,728.3333333333334,2395.048828125,757.5C2395.048828125,786.6666666666666,2395.048828125,815.8333333333334,2395.048828125,845C2395.048828125,874.1666666666666,2395.048828125,903.3333333333334,2395.048828125,932.5C2395.048828125,961.6666666666666,2395.048828125,990.8333333333334,2395.048828125,1013.75C2395.048828125,1036.6666666666667,2395.048828125,1053.3333333333333,2395.048828125,1061.6666666666667L2395.048828125,1070" class="er relationshipLine"/><path style="stroke: gray; fill: none;" marker-start="url(#ONLY_ONE_START)" marker-end="url(#ONLY_ONE_END)" d="M2445.048828125,78.60340669279469L2471.267578125,89.6695055773289C2497.486328125,100.73560446186313,2549.923828125,122.86780223093156,2576.142578125,148.51723444879912C2602.361328125,174.16666666666666,2602.361328125,203.33333333333334,2602.361328125,232.5C2602.361328125,261.6666666666667,2602.361328125,290.8333333333333,2602.361328125,320C2602.361328125,349.1666666666667,2602.361328125,378.3333333333333,2602.361328125,407.5C2602.361328125,436.6666666666667,2602.361328125,465.8333333333333,2602.361328125,495C2602.361328125,524.1666666666666,2602.361328125,553.3333333333334,2602.361328125,582.5C2602.361328125,611.6666666666666,2602.361328125,640.8333333333334,2602.361328125,670C2602.361328125,699.1666666666666,2602.361328125,728.3333333333334,2602.361328125,757.5C2602.361328125,786.6666666666666,2602.361328125,815.8333333333334,2602.361328125,845C2602.361328125,874.1666666666666,2602.361328125,903.3333333333334,2602.361328125,932.5C2602.361328125,961.6666666666666,2602.361328125,990.8333333333334,2602.361328125,1013.75C2602.361328125,1036.6666666666667,2602.361328125,1053.3333333333333,2602.361328125,1061.6666666666667L2602.361328125,1070" class="er relationshipLine"/><path style="stroke: gray; fill: none;" marker-start="url(#ONLY_ONE_START)" marker-end="url(#ONLY_ONE_END)" d="M1995.048828125,270L1995.048828125,278.3333333333333C1995.048828125,286.6666666666667,1995.048828125,303.3333333333333,1995.048828125,320C1995.048828125,336.6666666666667,1995.048828125,353.3333333333333,1995.048828125,361.6666666666667L1995.048828125,370" class="er relationshipLine"/><path style="stroke: gray; fill: none;" marker-start="url(#ONLY_ONE_START)" marker-end="url(#ONLY_ONE_END)" d="M1933.251953125,413.10146162032675L1782.6640625,426.75121801693894C1632.076171875,440.4009744135512,1330.900390625,467.70048720677556,1180.3125,489.68357693672107C1029.724609375,511.6666666666667,1029.724609375,528.3333333333334,1029.724609375,536.6666666666666L1029.724609375,545" class="er relationshipLine"/><path style="stroke: gray; fill: none;" marker-start="url(#ONLY_ONE_START)" marker-end="url(#ONLY_ONE_END)" d="M2005.7631138392858,445L2008.1440662202383,453.3333333333333C2010.5250186011906,461.6666666666667,2015.2869233630954,478.3333333333333,2017.6678757440477,501.25C2020.048828125,524.1666666666666,2020.048828125,553.3333333333334,2020.048828125,582.5C2020.048828125,611.6666666666666,2020.048828125,640.8333333333334,2020.048828125,670C2020.048828125,699.1666666666666,2020.048828125,728.3333333333334,2020.048828125,757.5C2020.048828125,786.6666666666666,2020.048828125,815.8333333333334,2020.048828125,845C2020.048828125,874.1666666666666,2020.048828125,903.3333333333334,2020.048828125,932.5C2020.048828125,961.6666666666666,2020.048828125,990.8333333333334,1863.328125,1019.263709144075C1706.607421875,1047.6940849548166,1393.166015625,1075.3881699096335,1236.4453125,1089.2352123870417L1079.724609375,1103.08225486445" class="er relationshipLine"/><path style="stroke: gray; fill: none;" marker-start="url(#ONLY_ONE_START)" marker-end="url(#ONLY_ONE_END)" d="M2056.845703125,434.7216868891467L2079.65234375,444.76807240762224C2102.458984375,454.81445792609776,2148.072265625,474.9072289630489,2170.87890625,499.5369478148578C2193.685546875,524.1666666666666,2193.685546875,553.3333333333334,2193.685546875,582.5C2193.685546875,611.6666666666666,2193.685546875,640.8333333333334,2193.685546875,670C2193.685546875,699.1666666666666,2193.685546875,728.3333333333334,2193.685546875,757.5C2193.685546875,786.6666666666666,2193.685546875,815.8333333333334,2193.685546875,845C2193.685546875,874.1666666666666,2193.685546875,903.3333333333334,2193.685546875,932.5C2193.685546875,961.6666666666666,2193.685546875,990.8333333333334,2193.685546875,1020C2193.685546875,1049.1666666666667,2193.685546875,1078.3333333333333,2193.685546875,1107.5C2193.685546875,1136.6666666666667,2193.685546875,1165.8333333333333,2193.815383184524,1188.75C2193.9452194940477,1211.6666666666667,2194.204892113095,1228.3333333333333,2194.334728422619,1236.6666666666667L2194.4645647321427,1245" class="er relationshipLine"/><path style="stroke: gray; fill: none;" marker-start="url(#ONLY_ONE_START)" marker-end="url(#ONLY_ONE_END)" d="M1029.724609375,1145L1029.724609375,1153.3333333333333C1029.724609375,1161.6666666666667,1029.724609375,1178.3333333333333,1215.6119791666667,1200.6242800029945C1401.4993489583333,1222.9152266726558,1773.2740885416667,1250.8304533453113,1959.1614583333333,1264.7880666816393L2145.048828125,1278.745680017967" class="er relationshipLine"/><path style="stroke: gray; fill: none;" marker-start="url(#ONLY_ONE_START)" marker-end="url(#ONLY_ONE_END)" d="M2602.361328125,1145L2602.361328125,1153.3333333333333C2602.361328125,1161.6666666666667,2602.361328125,1178.3333333333333,2542.8092447916665,1199.4598102398854C2483.2571614583335,1220.5862871464376,2364.1529947916665,1246.172574292875,2304.6009114583335,1258.9657178660939L2245.048828125,1271.7588614393126" class="er relationshipLine"/><path style="stroke: gray; fill: none;" marker-start="url(#ONLY_ONE_START)" marker-end="url(#ONLY_ONE_END)" d="M2395.048828125,1145L2395.048828125,1153.3333333333333C2395.048828125,1161.6666666666667,2395.048828125,1178.3333333333333,2370.048828125,1197.6041666666667C2345.048828125,1216.875,2295.048828125,1238.75,2270.048828125,1249.6875L2245.048828125,1260.625" class="er relationshipLine"/><path style="stroke: gray; fill: none;" marker-start="url(#ONLY_ONE_START)" marker-end="url(#ONLY_ONE_END)" d="M1072.581752232143,970L1065.4388950892858,978.3333333333334C1058.2960379464287,986.6666666666666,1044.0103236607144,1003.3333333333334,1036.867466517857,1020C1029.724609375,1036.6666666666667,1029.724609375,1053.3333333333333,1029.724609375,1061.6666666666667L1029.724609375,1070" class="er relationshipLine"/><path style="stroke: gray; fill: none;" marker-start="url(#ONLY_ONE_START)" marker-end="url(#ONLY_ONE_END)" d="M1167.716796875,939.5526213194316L1287.47265625,952.960517766193C1407.228515625,966.3684142129545,1646.740234375,993.1842071064772,1766.49609375,1021.1754368865719C1886.251953125,1049.1666666666667,1886.251953125,1078.3333333333333,1886.251953125,1107.5C1886.251953125,1136.6666666666667,1886.251953125,1165.8333333333333,1929.384765625,1192.638685084923C1972.517578125,1219.4440368365129,2058.783203125,1243.8880736730255,2101.916015625,1256.1100920912818L2145.048828125,1268.332110509538" class="er relationshipLine"/><path style="stroke: gray; fill: none;" marker-start="url(#ONLY_ONE_START)" marker-end="url(#ONLY_ONE_END)" d="M112.0546875,795L112.0546875,803.3333333333334C112.0546875,811.6666666666666,112.0546875,828.3333333333334,267.0009765625,850.3245805353172C421.947265625,872.315827737301,731.83984375,899.6316554746019,886.7861328125,913.2895693432524L1041.732421875,926.9474832119029" class="er relationshipLine"/><path style="stroke: gray; fill: none;" marker-start="url(#ONLY_ONE_START)" marker-end="url(#ONLY_ONE_END)" d="M387.84375,795L387.84375,803.3333333333334C387.84375,811.6666666666666,387.84375,828.3333333333334,496.8251953125,849.9685652180625C605.806640625,871.6037971027918,823.76953125,898.2075942055835,932.7509765625,911.5094927569794L1041.732421875,924.8113913083753" class="er relationshipLine"/><path style="stroke: gray; fill: none;" marker-start="url(#ONLY_ONE_START)" marker-end="url(#ONLY_ONE_END)" d="M635.0478515625,795L635.0478515625,803.3333333333334C635.0478515625,811.6666666666666,635.0478515625,828.3333333333334,702.82861328125,849.2941100130506C770.609375,870.2548866927679,906.1708984375,895.5097733855358,973.95166015625,908.1372167319197L1041.732421875,920.7646600783036" class="er relationshipLine"/><path style="stroke: gray; fill: none;" marker-start="url(#ONLY_ONE_START)" marker-end="url(#ONLY_ONE_END)" d="M897.884765625,795L897.884765625,803.3333333333334C897.884765625,811.6666666666666,897.884765625,828.3333333333334,921.859375,846.8087083655959C945.833984375,865.2840833978584,993.783203125,885.5681667957168,1017.7578125,895.7102084946459L1041.732421875,905.8522501935752" class="er relationshipLine"/><path style="stroke: gray; fill: none;" marker-start="url(#ONLY_ONE_START)" marker-end="url(#ONLY_ONE_END)" d="M1161.564453125,795L1161.564453125,803.3333333333334C1161.564453125,811.6666666666666,1161.564453125,828.3333333333334,1156.151134672619,845C1150.737816220238,861.6666666666666,1139.9111793154761,878.3333333333334,1134.4978608630952,886.6666666666666L1129.0845424107142,895" class="er relationshipLine"/><path style="stroke: gray; fill: none;" marker-start="url(#ONLY_ONE_START)" marker-end="url(#ONLY_ONE_END)" d="M1394.939453125,795L1394.939453125,803.3333333333334C1394.939453125,811.6666666666666,1394.939453125,828.3333333333334,1357.0690104166667,848.0846344527448C1319.1985677083333,867.835935572156,1243.4576822916667,890.6718711443121,1205.5872395833333,902.0898389303902L1167.716796875,913.5078067164682" class="er relationshipLine"/><path style="stroke: gray; fill: none;" marker-start="url(#ONLY_ONE_START)" marker-end="url(#ONLY_ONE_END)" d="M1624.431640625,795L1624.431640625,803.3333333333334C1624.431640625,811.6666666666666,1624.431640625,828.3333333333334,1548.3125,849.4823963070139C1472.193359375,870.6314592806945,1319.955078125,896.262918561389,1243.8359375,909.0786482017362L1167.716796875,921.8943778420835" class="er relationshipLine"/><path style="stroke: gray; fill: none;" marker-start="url(#ONLY_ONE_START)" marker-end="url(#ONLY_ONE_END)" d="M1852.455078125,795L1852.455078125,803.3333333333334C1852.455078125,811.6666666666666,1852.455078125,828.3333333333334,1738.33203125,850.0214342184771C1624.208984375,871.7095351036209,1395.962890625,898.4190702072416,1281.83984375,911.7738377590521L1167.716796875,925.1286053108626" class="er relationshipLine"/><path style="stroke: gray; fill: none;" marker-start="url(#ONLY_ONE_START)" marker-end="url(#ONLY_ONE_END)" d="M970.060546875,588.1889796039987L827.0595703125,601.824149669999C684.05859375,615.4593197359992,398.056640625,642.7296598679995,255.0556640625,664.6981632673331C112.0546875,686.6666666666666,112.0546875,703.3333333333334,112.0546875,711.6666666666666L112.0546875,720" class="er relationshipLine"/><path style="stroke: gray; fill: none;" marker-start="url(#ONLY_ONE_START)" marker-end="url(#ONLY_ONE_END)" d="M970.060546875,590.6332935738781L873.0244140625,603.8610779782317C775.98828125,617.0888623825854,581.916015625,643.5444311912927,484.8798828125,665.1055489289797C387.84375,686.6666666666666,387.84375,703.3333333333334,387.84375,711.6666666666666L387.84375,720" class="er relationshipLine"/><path style="stroke: gray; fill: none;" marker-start="url(#ONLY_ONE_START)" marker-end="url(#ONLY_ONE_END)" d="M970.060546875,595.7275472659836L914.22509765625,608.1062893883196C858.3896484375,620.4850315106557,746.71875,645.2425157553279,690.88330078125,665.9545912109973C635.0478515625,686.6666666666666,635.0478515625,703.3333333333334,635.0478515625,711.6666666666666L635.0478515625,720" class="er relationshipLine"/><path style="stroke: gray; fill: none;" marker-start="url(#ONLY_ONE_START)" marker-end="url(#ONLY_ONE_END)" d="M973.2218191964286,620L960.6656436011905,628.3333333333334C948.1094680059523,636.6666666666666,922.9971168154761,653.3333333333334,910.4409412202381,670C897.884765625,686.6666666666666,897.884765625,703.3333333333334,897.884765625,711.6666666666666L897.884765625,720" class="er relationshipLine"/><path style="stroke: gray; fill: none;" marker-start="url(#ONLY_ONE_START)" marker-end="url(#ONLY_ONE_END)" d="M1086.2273995535713,620L1098.7835751488094,628.3333333333334C1111.3397507440475,636.6666666666666,1136.4521019345239,653.3333333333334,1149.008277529762,670C1161.564453125,686.6666666666666,1161.564453125,703.3333333333334,1161.564453125,711.6666666666666L1161.564453125,720" class="er relationshipLine"/><path style="stroke: gray; fill: none;" marker-start="url(#ONLY_ONE_START)" marker-end="url(#ONLY_ONE_END)" d="M1089.388671875,596.7946146852773L1140.3138020833333,608.9955122377311C1191.2389322916667,621.1964097901849,1293.0891927083333,645.5982048950924,1344.0143229166667,666.1324357808795C1394.939453125,686.6666666666666,1394.939453125,703.3333333333334,1394.939453125,711.6666666666666L1394.939453125,720" class="er relationshipLine"/><path style="stroke: gray; fill: none;" marker-start="url(#ONLY_ONE_START)" marker-end="url(#ONLY_ONE_END)" d="M1089.388671875,591.2784492101547L1178.5625,604.3987076751289C1267.736328125,617.5189661401031,1446.083984375,643.7594830700515,1535.2578125,665.2130748683591C1624.431640625,686.6666666666666,1624.431640625,703.3333333333334,1624.431640625,711.6666666666666L1624.431640625,720" class="er relationshipLine"/><path style="stroke: gray; fill: none;" marker-start="url(#ONLY_ONE_START)" marker-end="url(#ONLY_ONE_END)" d="M1089.388671875,588.845462660064L1216.56640625,602.3712188833866C1343.744140625,615.8969751067093,1598.099609375,642.9484875533547,1725.27734375,664.8075771100107C1852.455078125,686.6666666666666,1852.455078125,703.3333333333334,1852.455078125,711.6666666666666L1852.455078125,720" class="er relationshipLine"/><g transform="translate(1920.048828125,20 )" id="entity-openvasd-f87fa013-1cfe-5f75-b054-f16c449f9b9c"><rect height="75" width="100" y="0" x="0" class="er entityBox"/><text style="dominant-baseline: middle; text-anchor: middle; font-size: 12px;" transform="translate(50,37.5)" y="0" x="0" id="text-entity-openvasd-f87fa013-1cfe-5f75-b054-f16c449f9b9c" class="er entityLabel">openvasd</text></g><g transform="translate(1945.048828125,195 )" id="entity-feed-678d111f-3d20-53d5-9129-2259ddb3cb88"><rect height="75" width="100" y="0" x="0" class="er entityBox"/><text style="dominant-baseline: middle; text-anchor: middle; font-size: 12px;" transform="translate(50,37.5)" y="0" x="0" id="text-entity-feed-678d111f-3d20-53d5-9129-2259ddb3cb88" class="er entityLabel">feed</text></g><g transform="translate(1745.048828125,195 )" id="entity-models-8c436f48-0205-5e28-8a58-ac1c637929c5"><rect height="75" width="100" y="0" x="0" class="er entityBox"/><text style="dominant-baseline: middle; text-anchor: middle; font-size: 12px;" transform="translate(50,37.5)" y="0" x="0" id="text-entity-models-8c436f48-0205-5e28-8a58-ac1c637929c5" class="er entityLabel">models</text></g><g transform="translate(2170.048828125,195 )" id="entity-osp-df13343e-ab80-5770-956b-f0ae421ee456"><rect height="75" width="100" y="0" x="0" class="er entityBox"/><text style="dominant-baseline: middle; text-anchor: middle; font-size: 12px;" transform="translate(50,37.5)" y="0" x="0" id="text-entity-osp-df13343e-ab80-5770-956b-f0ae421ee456" class="er entityLabel">osp</text></g><g transform="translate(2345.048828125,20 )" id="entity-naslcli-3aaca70b-9b79-59b0-baf7-d7366e9cba3a"><rect height="75" width="100" y="0" x="0" class="er entityBox"/><text style="dominant-baseline: middle; text-anchor: middle; font-size: 12px;" transform="translate(50,37.5)" y="0" x="0" id="text-entity-naslcli-3aaca70b-9b79-59b0-baf7-d7366e9cba3a" class="er entityLabel">nasl-cli</text></g><g transform="translate(2342.322265625,1070 )" id="entity-jsonstorage-9bff8826-6e9b-5f9c-9064-aae8a5a20ee7"><rect height="75" width="105.453125" y="0" x="0" class="er entityBox"/><text style="dominant-baseline: middle; text-anchor: middle; font-size: 12px;" transform="translate(52.7265625,37.5)" y="0" x="0" id="text-entity-jsonstorage-9bff8826-6e9b-5f9c-9064-aae8a5a20ee7" class="er entityLabel">json-storage</text></g><g transform="translate(2547.775390625,1070 )" id="entity-redisstorage-632cfee5-f30f-5b2f-848c-b5290b25e030"><rect height="75" width="109.171875" y="0" x="0" class="er entityBox"/><text style="dominant-baseline: middle; text-anchor: middle; font-size: 12px;" transform="translate(54.5859375,37.5)" y="0" x="0" id="text-entity-redisstorage-632cfee5-f30f-5b2f-848c-b5290b25e030" class="er entityLabel">redis-storage</text></g><g transform="translate(1933.251953125,370 )" id="entity-naslinterpreter-f6908c36-5599-5407-973f-13dfb3847699"><rect height="75" width="123.59375" y="0" x="0" class="er entityBox"/><text style="dominant-baseline: middle; text-anchor: middle; font-size: 12px;" transform="translate(61.796875,37.5)" y="0" x="0" id="text-entity-naslinterpreter-f6908c36-5599-5407-973f-13dfb3847699" class="er entityLabel">nasl-interpreter</text></g><g transform="translate(970.060546875,545 )" id="entity-naslbuiltinstd-06087ebf-2835-59f7-bc44-80e588c2a550"><rect height="75" width="119.328125" y="0" x="0" class="er entityBox"/><text style="dominant-baseline: middle; text-anchor: middle; font-size: 12px;" transform="translate(59.6640625,37.5)" y="0" x="0" id="text-entity-naslbuiltinstd-06087ebf-2835-59f7-bc44-80e588c2a550" class="er entityLabel">nasl-builtin-std</text></g><g transform="translate(979.724609375,1070 )" id="entity-naslsyntax-6fcb0cbe-86fc-5e39-8798-04f04c63aec0"><rect height="75" width="100" y="0" x="0" class="er entityBox"/><text style="dominant-baseline: middle; text-anchor: middle; font-size: 12px;" transform="translate(50,37.5)" y="0" x="0" id="text-entity-naslsyntax-6fcb0cbe-86fc-5e39-8798-04f04c63aec0" class="er entityLabel">nasl-syntax</text></g><g transform="translate(2145.048828125,1245 )" id="entity-storage-52ff087b-0b2f-5b65-8049-c22fa884f56f"><rect height="75" width="100" y="0" x="0" class="er entityBox"/><text style="dominant-baseline: middle; text-anchor: middle; font-size: 12px;" transform="translate(50,37.5)" y="0" x="0" id="text-entity-storage-52ff087b-0b2f-5b65-8049-c22fa884f56f" class="er entityLabel">storage</text></g><g transform="translate(1041.732421875,895 )" id="entity-naslbuiltinutils-0df58cf7-a97f-56d3-aad1-21787de13ceb"><rect height="75" width="125.984375" y="0" x="0" class="er entityBox"/><text style="dominant-baseline: middle; text-anchor: middle; font-size: 12px;" transform="translate(62.9921875,37.5)" y="0" x="0" id="text-entity-naslbuiltinutils-0df58cf7-a97f-56d3-aad1-21787de13ceb" class="er entityLabel">nasl-builtin-utils</text></g><g transform="translate(20,720 )" id="entity-naslbuiltincryptographic-de270a83-2450-54c0-b46e-12bdd5164eb8"><rect height="75" width="184.109375" y="0" x="0" class="er entityBox"/><text style="dominant-baseline: middle; text-anchor: middle; font-size: 12px;" transform="translate(92.0546875,37.5)" y="0" x="0" id="text-entity-naslbuiltincryptographic-de270a83-2450-54c0-b46e-12bdd5164eb8" class="er entityLabel">nasl-builtin-cryptographic</text></g><g transform="translate(304.109375,720 )" id="entity-naslbuiltindescription-561477e5-fcfc-539f-88bf-b3f1084a638e"><rect height="75" width="167.46875" y="0" x="0" class="er entityBox"/><text style="dominant-baseline: middle; text-anchor: middle; font-size: 12px;" transform="translate(83.734375,37.5)" y="0" x="0" id="text-entity-naslbuiltindescription-561477e5-fcfc-539f-88bf-b3f1084a638e" class="er entityLabel">nasl-builtin-description</text></g><g transform="translate(571.578125,720 )" id="entity-naslbuiltinhost-e3dc50bc-9acd-5a2a-8bb2-3f4d90462fa8"><rect height="75" width="126.939453125" y="0" x="0" class="er entityBox"/><text style="dominant-baseline: middle; text-anchor: middle; font-size: 12px;" transform="translate(63.4697265625,37.5)" y="0" x="0" id="text-entity-naslbuiltinhost-e3dc50bc-9acd-5a2a-8bb2-3f4d90462fa8" class="er entityLabel">nasl-builtin-host</text></g><g transform="translate(798.517578125,720 )" id="entity-naslbuiltinknowledgebase-716b56b4-cd3a-52f3-8aea-9d74b4bf4418"><rect height="75" width="198.734375" y="0" x="0" class="er entityBox"/><text style="dominant-baseline: middle; text-anchor: middle; font-size: 12px;" transform="translate(99.3671875,37.5)" y="0" x="0" id="text-entity-naslbuiltinknowledgebase-716b56b4-cd3a-52f3-8aea-9d74b4bf4418" class="er entityLabel">nasl-builtin-knowledge-base</text></g><g transform="translate(1097.251953125,720 )" id="entity-naslbuiltinmisc-4aa73325-d0c9-5f18-b31a-9f9e75ff3525"><rect height="75" width="128.625" y="0" x="0" class="er entityBox"/><text style="dominant-baseline: middle; text-anchor: middle; font-size: 12px;" transform="translate(64.3125,37.5)" y="0" x="0" id="text-entity-naslbuiltinmisc-4aa73325-d0c9-5f18-b31a-9f9e75ff3525" class="er entityLabel">nasl-builtin-misc</text></g><g transform="translate(1325.876953125,720 )" id="entity-naslbuiltinrawip-e9eef7e4-12f7-5a99-bf7f-caa2b1b8be31"><rect height="75" width="138.125" y="0" x="0" class="er entityBox"/><text style="dominant-baseline: middle; text-anchor: middle; font-size: 12px;" transform="translate(69.0625,37.5)" y="0" x="0" id="text-entity-naslbuiltinrawip-e9eef7e4-12f7-5a99-bf7f-caa2b1b8be31" class="er entityLabel">nasl-builtin-raw-ip</text></g><g transform="translate(1564.001953125,720 )" id="entity-naslbuiltinssh-661d5af0-0f95-50b1-b86b-1c1a03dfcc68"><rect height="75" width="120.859375" y="0" x="0" class="er entityBox"/><text style="dominant-baseline: middle; text-anchor: middle; font-size: 12px;" transform="translate(60.4296875,37.5)" y="0" x="0" id="text-entity-naslbuiltinssh-661d5af0-0f95-50b1-b86b-1c1a03dfcc68" class="er entityLabel">nasl-builtin-ssh</text></g><g transform="translate(1784.861328125,720 )" id="entity-naslbuiltinstring-9d62d431-2bec-540b-8c99-5caa93808fd4"><rect height="75" width="135.1875" y="0" x="0" class="er entityBox"/><text style="dominant-baseline: middle; text-anchor: middle; font-size: 12px;" transform="translate(67.59375,37.5)" y="0" x="0" id="text-entity-naslbuiltinstring-9d62d431-2bec-540b-8c99-5caa93808fd4" class="er entityLabel">nasl-builtin-string</text></g><rect height="14" width="27.5" y="147.53341674804688" x="1864.297119140625" class="er relationshipLabelBox"/><text style="text-anchor: middle; dominant-baseline: middle; font-size: 12px;" y="154.53341674804688" x="1878.047119140625" id="rel1" class="er relationshipLabel">uses</text><rect height="14" width="27.5" y="153.1859130859375" x="1900.3048095703125" class="er relationshipLabelBox"/><text style="text-anchor: middle; dominant-baseline: middle; font-size: 12px;" y="160.1859130859375" x="1914.0548095703125" id="rel2" class="er relationshipLabel">uses</text><rect height="14" width="27.5" y="153.1753387451172" x="2066.00927734375" class="er relationshipLabelBox"/><text style="text-anchor: middle; dominant-baseline: middle; font-size: 12px;" y="160.1753387451172" x="2079.75927734375" id="rel3" class="er relationshipLabel">uses</text><rect height="14" width="27.5" y="123.86111450195312" x="2177.639892578125" class="er relationshipLabelBox"/><text style="text-anchor: middle; dominant-baseline: middle; font-size: 12px;" y="130.86111450195312" x="2191.389892578125" id="rel4" class="er relationshipLabel">uses</text><rect height="14" width="27.5" y="575.5" x="2381.298828125" class="er relationshipLabelBox"/><text style="text-anchor: middle; dominant-baseline: middle; font-size: 12px;" y="582.5" x="2395.048828125" id="rel5" class="er relationshipLabel">uses</text><rect height="14" width="27.5" y="524.1351318359375" x="2588.611328125" class="er relationshipLabelBox"/><text style="text-anchor: middle; dominant-baseline: middle; font-size: 12px;" y="531.1351318359375" x="2602.361328125" id="rel6" class="er relationshipLabel">uses</text><rect height="14" width="27.5" y="313" x="1981.298828125" class="er relationshipLabelBox"/><text style="text-anchor: middle; dominant-baseline: middle; font-size: 12px;" y="320" x="1995.048828125" id="rel7" class="er relationshipLabel">uses</text><rect height="14" width="27.5" y="449.1407470703125" x="1457.3028564453125" class="er relationshipLabelBox"/><text style="text-anchor: middle; dominant-baseline: middle; font-size: 12px;" y="456.1407470703125" x="1471.0528564453125" id="rel8" class="er relationshipLabel">uses</text><rect height="14" width="27.5" y="1020.7694091796875" x="1798.0924072265625" class="er relationshipLabelBox"/><text style="text-anchor: middle; dominant-baseline: middle; font-size: 12px;" y="1027.7694091796875" x="1811.8424072265625" id="rel9" class="er relationshipLabel">uses</text><rect height="14" width="27.5" y="796.5355224609375" x="2179.935546875" class="er relationshipLabelBox"/><text style="text-anchor: middle; dominant-baseline: middle; font-size: 12px;" y="803.5355224609375" x="2193.685546875" id="rel10" class="er relationshipLabel">uses</text><rect height="14" width="27.5" y="1228.02099609375" x="1563.880859375" class="er relationshipLabelBox"/><text style="text-anchor: middle; dominant-baseline: middle; font-size: 12px;" y="1235.02099609375" x="1577.630859375" id="rel11" class="er relationshipLabel">uses</text><rect height="14" width="71" y="1221.9583740234375" x="2402.231201171875" class="er relationshipLabelBox"/><text style="text-anchor: middle; dominant-baseline: middle; font-size: 12px;" y="1228.9583740234375" x="2437.731201171875" id="rel12" class="er relationshipLabel">implements</text><rect height="14" width="71" y="1211.3424072265625" x="2301.01416015625" class="er relationshipLabelBox"/><text style="text-anchor: middle; dominant-baseline: middle; font-size: 12px;" y="1218.3424072265625" x="2336.51416015625" id="rel13" class="er relationshipLabel">implements</text><rect height="14" width="27.5" y="1008.1259765625" x="1025.4014892578125" class="er relationshipLabelBox"/><text style="text-anchor: middle; dominant-baseline: middle; font-size: 12px;" y="1015.1259765625" x="1039.1514892578125" id="rel14" class="er relationshipLabel">uses</text><rect height="14" width="27.5" y="1002.8577270507812" x="1697.8634033203125" class="er relationshipLabelBox"/><text style="text-anchor: middle; dominant-baseline: middle; font-size: 12px;" y="1009.8577270507812" x="1711.6134033203125" id="rel15" class="er relationshipLabel">uses</text><rect height="14" width="27.5" y="876.92236328125" x="552.8067626953125" class="er relationshipLabelBox"/><text style="text-anchor: middle; dominant-baseline: middle; font-size: 12px;" y="883.92236328125" x="566.5567626953125" id="rel16" class="er relationshipLabel">uses</text><rect height="14" width="27.5" y="875.2906494140625" x="689.4366455078125" class="er relationshipLabelBox"/><text style="text-anchor: middle; dominant-baseline: middle; font-size: 12px;" y="882.2906494140625" x="703.1866455078125" id="rel17" class="er relationshipLabel">uses</text><rect height="14" width="27.5" y="872.03076171875" x="811.1764526367188" class="er relationshipLabelBox"/><text style="text-anchor: middle; dominant-baseline: middle; font-size: 12px;" y="879.03076171875" x="824.9264526367188" id="rel18" class="er relationshipLabel">uses</text><rect height="14" width="27.5" y="859.09521484375" x="939.5335083007812" class="er relationshipLabelBox"/><text style="text-anchor: middle; dominant-baseline: middle; font-size: 12px;" y="866.09521484375" x="953.2835083007812" id="rel19" class="er relationshipLabel">uses</text><rect height="14" width="27.5" y="841.070556640625" x="1141.34423828125" class="er relationshipLabelBox"/><text style="text-anchor: middle; dominant-baseline: middle; font-size: 12px;" y="848.070556640625" x="1155.09423828125" id="rel20" class="er relationshipLabel">uses</text><rect height="14" width="27.5" y="865.8340454101562" x="1283.144287109375" class="er relationshipLabelBox"/><text style="text-anchor: middle; dominant-baseline: middle; font-size: 12px;" y="872.8340454101562" x="1296.894287109375" id="rel21" class="er relationshipLabel">uses</text><rect height="14" width="27.5" y="872.9581298828125" x="1395.3270263671875" class="er relationshipLabelBox"/><text style="text-anchor: middle; dominant-baseline: middle; font-size: 12px;" y="879.9581298828125" x="1409.0770263671875" id="rel22" class="er relationshipLabel">uses</text><rect height="14" width="27.5" y="875.5372314453125" x="1507.7640380859375" class="er relationshipLabelBox"/><text style="text-anchor: middle; dominant-baseline: middle; font-size: 12px;" y="882.5372314453125" x="1521.5140380859375" id="rel23" class="er relationshipLabel">uses</text><rect height="14" width="52.6875" y="624.2581787109375" x="504.0966796875" class="er relationshipLabelBox"/><text style="text-anchor: middle; dominant-baseline: middle; font-size: 12px;" y="631.2581787109375" x="530.4404296875" id="rel24" class="er relationshipLabel">fassades</text><rect height="14" width="52.6875" y="626.1852416992188" x="640.5533447265625" class="er relationshipLabelBox"/><text style="text-anchor: middle; dominant-baseline: middle; font-size: 12px;" y="633.1852416992188" x="666.8970947265625" id="rel25" class="er relationshipLabel">fassades</text><rect height="14" width="52.6875" y="630.458251953125" x="761.9764404296875" class="er relationshipLabelBox"/><text style="text-anchor: middle; dominant-baseline: middle; font-size: 12px;" y="637.458251953125" x="788.3201904296875" id="rel26" class="er relationshipLabel">fassades</text><rect height="14" width="52.6875" y="652.6207275390625" x="893.3917846679688" class="er relationshipLabelBox"/><text style="text-anchor: middle; dominant-baseline: middle; font-size: 12px;" y="659.6207275390625" x="919.7355346679688" id="rel27" class="er relationshipLabel">fassades</text><rect height="14" width="52.6875" y="652.6206665039062" x="1113.3699951171875" class="er relationshipLabelBox"/><text style="text-anchor: middle; dominant-baseline: middle; font-size: 12px;" y="659.6206665039062" x="1139.7137451171875" id="rel28" class="er relationshipLabel">fassades</text><rect height="14" width="52.6875" y="631.3837280273438" x="1230.400634765625" class="er relationshipLabelBox"/><text style="text-anchor: middle; dominant-baseline: middle; font-size: 12px;" y="638.3837280273438" x="1256.744384765625" id="rel29" class="er relationshipLabel">fassades</text><rect height="14" width="52.6875" y="626.7086181640625" x="1342.9525146484375" class="er relationshipLabelBox"/><text style="text-anchor: middle; dominant-baseline: middle; font-size: 12px;" y="633.7086181640625" x="1369.2962646484375" id="rel30" class="er relationshipLabel">fassades</text><rect height="14" width="52.6875" y="624.7662963867188" x="1455.6131591796875" class="er relationshipLabelBox"/><text style="text-anchor: middle; dominant-baseline: middle; font-size: 12px;" y="631.7662963867188" x="1481.9569091796875" id="rel31" class="er relationshipLabel">fassades</text><text class="entityTitleText" y="-25" x="1338.4736328125">OpenVASD / nasl-cli overview</text></svg>