/* XPM */
static char * error_small_xpm[] = {
"16 16 94 2",
"  	c None",
". 	c #D82B14",
"+ 	c #BA2513",
"@ 	c #A82313",
"# 	c #A82415",
"$ 	c #B12818",
"% 	c #B42A1B",
"& 	c #C02512",
"* 	c #A92212",
"= 	c #A72313",
"- 	c #A02314",
"; 	c #A62617",
"> 	c #A82D1F",
", 	c #A3281B",
"' 	c #A2291D",
") 	c #CB2814",
"! 	c #A82212",
"~ 	c #A52717",
"{ 	c #AA2D1E",
"] 	c #A52719",
"^ 	c #9E2618",
"/ 	c #A3291D",
"( 	c #A73125",
"_ 	c #A22D21",
": 	c #88251C",
"< 	c #B63E15",
"[ 	c #B85118",
"} 	c #B9521B",
"| 	c #BA5722",
"1 	c #BB5D2C",
"2 	c #B65524",
"3 	c #AC5122",
"4 	c #B15226",
"5 	c #B3562E",
"6 	c #972B21",
"7 	c #D42C18",
"8 	c #CF801D",
"9 	c #E1AF27",
"0 	c #DFAE2A",
"a 	c #DCAD2C",
"b 	c #DAAB30",
"c 	c #D7A837",
"d 	c #D2A537",
"e 	c #CEA23A",
"f 	c #9C2F25",
"g 	c #33100D",
"h 	c #C72B1A",
"i 	c #CB7C20",
"j 	c #DEAD29",
"k 	c #DDAE33",
"l 	c #DAAC31",
"m 	c #D4A532",
"n 	c #D4A535",
"o 	c #D0A439",
"p 	c #D2A841",
"q 	c #CEA13D",
"r 	c #972F26",
"s 	c #1D0A08",
"t 	c #A6271A",
"u 	c #A5291B",
"v 	c #9E281C",
"w 	c #A32F24",
"x 	c #A12C21",
"y 	c #962B21",
"z 	c #9C2E24",
"A 	c #9F3027",
"B 	c #A1362D",
"C 	c #792620",
"D 	c #040202",
"E 	c #A4291C",
"F 	c #A32A1E",
"G 	c #A32C20",
"H 	c #9D2D22",
"I 	c #A13127",
"J 	c #A02F25",
"K 	c #9C3027",
"L 	c #9F3229",
"M 	c #96322A",
"N 	c #2B100E",
"O 	c #88251B",
"P 	c #A12D22",
"Q 	c #A12F24",
"R 	c #9F3329",
"S 	c #9B332A",
"T 	c #9E322A",
"U 	c #8F2F28",
"V 	c #391311",
"W 	c #020202",
"X 	c #4C1611",
"Y 	c #71211B",
"Z 	c #822821",
"` 	c #782721",
" .	c #501A16",
"..	c #160807",
"                                ",
"                                ",
"                                ",
"          . + @ # $ %           ",
"        & * = - ; > , '         ",
"      ) ! ~ { ] ^ / ( _ :       ",
"      < [ } | 1 2 3 4 5 6       ",
"    7 8 9 0 a b c c d e f g     ",
"    h i j k l m n o p q r s     ",
"      t u v w x y z A B C D     ",
"      E F G H I J K L M N       ",
"        O P Q R S T U V W       ",
"          X Y Z `  ...W         ",
"              W W W             ",
"                                ",
"                                "};
