/* XPM */
static char * info_small_xpm[] = {
"16 16 64 1",
" 	c None",
".	c #FEFEFE",
"+	c #FCFCFC",
"@	c #C3C3C3",
"#	c #ABAAA9",
"$	c #BBBABA",
"%	c #F7F7F7",
"&	c #989588",
"*	c #E3D496",
"=	c #F7E9AA",
"-	c #EAD992",
";	c #B1A579",
">	c #D2D2D1",
",	c #B5B5B3",
"'	c #EDDC98",
")	c #F9F3DC",
"!	c #FAF6E8",
"~	c #F9EDBA",
"{	c #F1DF8E",
"]	c #999170",
"^	c #FAFAFA",
"/	c #B5B3A8",
"(	c #F4E39B",
"_	c #FAF6E7",
":	c #F9F4E3",
"<	c #F6EABA",
"[	c #F6E494",
"}	c #B5A66D",
"|	c #D9D9D9",
"1	c #B7B7B6",
"2	c #E9D995",
"3	c #FAF5E3",
"4	c #F9F0CD",
"5	c #F3E6AD",
"6	c #F1DF8F",
"7	c #988C5B",
"8	c #EFEFEF",
"9	c #F7F7F6",
"0	c #B6AA7A",
"a	c #F8F1D7",
"b	c #F3E5A9",
"c	c #E9D88F",
"d	c #CFBE76",
"e	c #979383",
"f	c #918C79",
"g	c #AFA684",
"h	c #D3C17B",
"i	c #95895A",
"j	c #918F87",
"k	c #2F2F2C",
"l	c #9B9B97",
"m	c #959591",
"n	c #55544F",
"o	c #B3B2B0",
"p	c #FDFDFD",
"q	c #434341",
"r	c #969692",
"s	c #888885",
"t	c #494948",
"u	c #0D0D0B",
"v	c #494946",
"w	c #737371",
"x	c #0E0E0C",
"y	c #21211E",
"                ",
"                ",
"        ...     ",
"       +@#$%.   ",
"      %&*=-;>.  ",
"     .,')!~{]^  ",
"     ./(_:<[}|  ",
"      12345678  ",
"      90abcde.  ",
"       fghij8   ",
"      klmnop    ",
"      qrst      ",
"      uvw       ",
"       xy       ",
"                ",
"                "};
