/* XPM */
static char * lock_xpm[] = {
"48 48 472 2",
"  	c None",
". 	c #B7B7B7",
"+ 	c #C7C7C7",
"@ 	c #BFBFBF",
"# 	c #BEBEBE",
"$ 	c #B8B8B8",
"% 	c #AAAAAA",
"& 	c #CACACA",
"* 	c #BCBCBC",
"= 	c #989898",
"- 	c #7D7D7D",
"; 	c #787878",
"> 	c #878787",
", 	c #ADADAD",
"' 	c #C6C6C6",
") 	c #B9B9B9",
"! 	c #B4B4B4",
"~ 	c #CDCDCD",
"{ 	c #6C6C6C",
"] 	c #5B5B5B",
"^ 	c #ABABAB",
"/ 	c #C1C1C1",
"( 	c #B2B2B2",
"_ 	c #9B9B9B",
": 	c #9C9C9C",
"< 	c #B5B5B5",
"[ 	c #7E7E7E",
"} 	c #A59880",
"| 	c #898989",
"1 	c #858585",
"2 	c #B6B6B6",
"3 	c #767676",
"4 	c #73664F",
"5 	c #A6977D",
"6 	c #BCAB90",
"7 	c #CABA9E",
"8 	c #D7C7AA",
"9 	c #E7D9C0",
"0 	c #D7C7AC",
"a 	c #998A71",
"b 	c #000000",
"c 	c #B1B1B1",
"d 	c #565656",
"e 	c #8F8167",
"f 	c #9E9077",
"g 	c #B4A588",
"h 	c #C8B79A",
"i 	c #D9C8AC",
"j 	c #D6C9B0",
"k 	c #D7CCB7",
"l 	c #D6CAB6",
"m 	c #D7C9B2",
"n 	c #C6B698",
"o 	c #938264",
"p 	c #999999",
"q 	c #3C3C3C",
"r 	c #918368",
"s 	c #A8997F",
"t 	c #B9A98C",
"u 	c #CBBA9B",
"v 	c #DBCAAB",
"w 	c #E5D6BB",
"x 	c #E9DCC6",
"y 	c #E0D4C0",
"z 	c #D0C3AD",
"A 	c #B4A58C",
"B 	c #B6A488",
"C 	c #B2A082",
"D 	c #9D8969",
"E 	c #322A1D",
"F 	c #6F6F6F",
"G 	c #ACACAC",
"H 	c #6A6A6A",
"I 	c #2E2E2E",
"J 	c #918267",
"K 	c #A6987E",
"L 	c #B5A589",
"M 	c #C7B698",
"N 	c #D7C5A8",
"O 	c #E3D4B8",
"P 	c #E7DAC5",
"Q 	c #DCCEB8",
"R 	c #CEBEA3",
"S 	c #C3B092",
"T 	c #B09D7F",
"U 	c #9C8B6F",
"V 	c #948266",
"W 	c #988568",
"X 	c #68593D",
"Y 	c #828282",
"Z 	c #7F7F7F",
"` 	c #474747",
" .	c #313131",
"..	c #8B7D62",
"+.	c #A89980",
"@.	c #B6A68A",
"#.	c #C6B597",
"$.	c #D6C4A4",
"%.	c #E1D0B6",
"&.	c #E8DCC4",
"*.	c #E7DBC6",
"=.	c #DED0B9",
"-.	c #D0BFA5",
";.	c #C2B092",
">.	c #BCA989",
",.	c #AF9B7D",
"'.	c #A18E71",
").	c #958366",
"!.	c #8A785E",
"~.	c #8D7A5D",
"{.	c #65553A",
"].	c #4A4A4A",
"^.	c #686868",
"/.	c #4C4C4C",
"(.	c #282828",
"_.	c #766950",
":.	c #A99A80",
"<.	c #C7B597",
"[.	c #D4C2A3",
"}.	c #E0D0B3",
"|.	c #E8DBC4",
"1.	c #E9DCC8",
"2.	c #E0D3BD",
"3.	c #CFBFA4",
"4.	c #C5B193",
"5.	c #BFAC8C",
"6.	c #B3A080",
"7.	c #A59172",
"8.	c #9D896B",
"9.	c #988567",
"0.	c #917D61",
"a.	c #816F55",
"b.	c #7E6C51",
"c.	c #5F5443",
"d.	c #434343",
"e.	c #202020",
"f.	c #B6A589",
"g.	c #D4C1A1",
"h.	c #DBCAAC",
"i.	c #E7D9C2",
"j.	c #E8DCC7",
"k.	c #E3D6C0",
"l.	c #D3C3A9",
"m.	c #C4B294",
"n.	c #C0AC8C",
"o.	c #B8A485",
"p.	c #A79476",
"q.	c #9D8A6B",
"r.	c #998567",
"s.	c #958163",
"t.	c #8E7B5D",
"u.	c #867256",
"v.	c #736048",
"w.	c #68573D",
"x.	c #2E2C27",
"y.	c #191919",
"z.	c #A8987C",
"A.	c #B4A488",
"B.	c #C5B495",
"C.	c #D4C1A2",
"D.	c #DBCAAA",
"E.	c #E5D6BD",
"F.	c #E2D6C2",
"G.	c #D6C8AF",
"H.	c #C7B495",
"I.	c #C1AE8D",
"J.	c #BBA889",
"K.	c #AE9A7C",
"L.	c #9F8B6D",
"M.	c #998669",
"N.	c #958164",
"O.	c #907C5F",
"P.	c #887559",
"Q.	c #7D6A4F",
"R.	c #6E5B41",
"S.	c #5C4C35",
"T.	c #52432D",
"U.	c #040404",
"V.	c #9F9072",
"W.	c #B7A78B",
"X.	c #D3C0A0",
"Y.	c #DBC8A8",
"Z.	c #E3D5BB",
"`.	c #E3D6C2",
" +	c #D9CBB3",
".+	c #C8B697",
"++	c #C2AF8F",
"@+	c #BCA988",
"#+	c #B29F80",
"$+	c #A18E70",
"%+	c #9A8668",
"&+	c #968365",
"*+	c #917E60",
"=+	c #897659",
"-+	c #7E6A4E",
";+	c #725F44",
">+	c #66543C",
",+	c #594833",
"'+	c #4D3E2A",
")+	c #807258",
"!+	c #B0A186",
"~+	c #BBAA8E",
"{+	c #C5B395",
"]+	c #D0BF9F",
"^+	c #DFCFB4",
"/+	c #E5D9C4",
"(+	c #E3D7C3",
"_+	c #DBCEB8",
":+	c #CAB89B",
"<+	c #C2AF90",
"[+	c #BEAB8C",
"}+	c #B5A283",
"|+	c #A79375",
"1+	c #9A8769",
"2+	c #968265",
"3+	c #917E61",
"4+	c #806C4F",
"5+	c #756145",
"6+	c #6A583E",
"7+	c #5E4E35",
"8+	c #54432F",
"9+	c #3F3220",
"0+	c #C0B090",
"a+	c #C7B697",
"b+	c #C9BB9F",
"c+	c #CDC1AD",
"d+	c #D9CDBA",
"e+	c #DDCFBB",
"f+	c #CCBC9E",
"g+	c #C4B190",
"h+	c #C1AD8D",
"i+	c #B9A686",
"j+	c #A99578",
"k+	c #9C886B",
"l+	c #8B775A",
"m+	c #826E51",
"n+	c #776448",
"o+	c #6F5B41",
"p+	c #635139",
"q+	c #564630",
"r+	c #4B3D28",
"s+	c #352919",
"t+	c #A9997D",
"u+	c #90836B",
"v+	c #A99A7F",
"w+	c #B5A488",
"x+	c #D8C6A8",
"y+	c #E0D3BC",
"z+	c #DFD3BF",
"A+	c #C7BBA9",
"B+	c #BEAF96",
"C+	c #C0AD8E",
"D+	c #C0AD8D",
"E+	c #BBA788",
"F+	c #AD9A7B",
"G+	c #9E8B6C",
"H+	c #978366",
"I+	c #937F61",
"J+	c #8C795B",
"K+	c #847053",
"L+	c #786448",
"M+	c #725F43",
"N+	c #68563C",
"O+	c #5B4933",
"P+	c #4F402A",
"Q+	c #453825",
"R+	c #0E0B05",
"S+	c #857961",
"T+	c #726752",
"U+	c #736852",
"V+	c #756A56",
"W+	c #736854",
"X+	c #716651",
"Y+	c #8F836E",
"Z+	c #C1B59F",
"`+	c #D3C4AB",
" @	c #C2AF91",
".@	c #A9977C",
"+@	c #B2A083",
"@@	c #B19D7F",
"#@	c #A18D6F",
"$@	c #938063",
"%@	c #8E7A5E",
"&@	c #867255",
"*@	c #7A674B",
"=@	c #735F45",
"-@	c #6C593E",
";@	c #604F36",
">@	c #54432D",
",@	c #493A26",
"'@	c #41331F",
")@	c #776C59",
"!@	c #6C624F",
"~@	c #716551",
"{@	c #726753",
"]@	c #6F644F",
"^@	c #6C624D",
"/@	c #695F4B",
"(@	c #7B705A",
"_@	c #AA997D",
":@	c #BAA888",
"<@	c #A69478",
"[@	c #97856A",
"}@	c #948062",
"|@	c #877356",
"1@	c #7D694C",
"2@	c #746145",
"3@	c #6D5A40",
"4@	c #655239",
"5@	c #594831",
"6@	c #4D3E29",
"7@	c #443623",
"8@	c #261D10",
"9@	c #6F6552",
"0@	c #6A5F4D",
"a@	c #6F6551",
"b@	c #706650",
"c@	c #716652",
"d@	c #6C634D",
"e@	c #6A614C",
"f@	c #6A604C",
"g@	c #685E4B",
"h@	c #7C6F59",
"i@	c #A29073",
"j@	c #938164",
"k@	c #867359",
"l@	c #8F7B5F",
"m@	c #887558",
"n@	c #7E6B4F",
"o@	c #756146",
"p@	c #705C40",
"q@	c #67553A",
"r@	c #5C4A32",
"s@	c #51412B",
"t@	c #483824",
"u@	c #413220",
"v@	c #050402",
"w@	c #514A3D",
"x@	c #635B49",
"y@	c #69604E",
"z@	c #6E6350",
"A@	c #6D634F",
"B@	c #6E6450",
"C@	c #6B614C",
"D@	c #695E4A",
"E@	c #675C49",
"F@	c #615845",
"G@	c #7B6C54",
"H@	c #88765A",
"I@	c #7C6A51",
"J@	c #7D6A4D",
"K@	c #766347",
"L@	c #705C42",
"M@	c #6A573D",
"N@	c #614E36",
"O@	c #53442E",
"P@	c #4A3B26",
"Q@	c #423320",
"R@	c #2C2212",
"S@	c #685F52",
"T@	c #625A48",
"U@	c #665E4C",
"V@	c #6C624E",
"W@	c #413A2A",
"X@	c #41392A",
"Y@	c #4F4734",
"Z@	c #6B614D",
"`@	c #685D4A",
" #	c #635846",
".#	c #605742",
"+#	c #6D604B",
"@#	c #6D5B41",
"##	c #6D593F",
"$#	c #6B583D",
"%#	c #624F37",
"&#	c #59472F",
"*#	c #4D3E28",
"=#	c #433422",
"-#	c #3C2E1B",
";#	c #050302",
">#	c #696152",
",#	c #615847",
"'#	c #645B49",
")#	c #352D20",
"!#	c #3B3325",
"~#	c #423A29",
"{#	c #4C4334",
"]#	c #625A46",
"^#	c #665B48",
"/#	c #635845",
"(#	c #615744",
"_#	c #625945",
":#	c #6F5D43",
"<#	c #625037",
"[#	c #624F36",
"}#	c #5B4831",
"|#	c #50402B",
"1#	c #473723",
"2#	c #40311E",
"3#	c #231A0E",
"4#	c #635A48",
"5#	c #605747",
"6#	c #3C3628",
"7#	c #423A2A",
"8#	c #4E4837",
"9#	c #625642",
"0#	c #675D4A",
"a#	c #645B47",
"b#	c #635945",
"c#	c #625845",
"d#	c #625742",
"e#	c #64523A",
"f#	c #57462F",
"g#	c #52412B",
"h#	c #4A3A26",
"i#	c #42331F",
"j#	c #3A2D19",
"k#	c #5F5646",
"l#	c #5C5344",
"m#	c #514939",
"n#	c #595140",
"o#	c #6B604D",
"p#	c #7A6F59",
"q#	c #685D49",
"r#	c #665D4A",
"s#	c #5F5643",
"t#	c #5A523F",
"u#	c #463722",
"v#	c #42341F",
"w#	c #3E2F1C",
"x#	c #100B05",
"y#	c #3C362B",
"z#	c #5D5444",
"A#	c #6B624F",
"B#	c #796F5A",
"C#	c #857963",
"D#	c #655B49",
"E#	c #645B48",
"F#	c #635A46",
"G#	c #605845",
"H#	c #5D5341",
"I#	c #574E3D",
"J#	c #514534",
"K#	c #493823",
"L#	c #2F2212",
"M#	c #4C4436",
"N#	c #5B5343",
"O#	c #5C5343",
"P#	c #5B5142",
"Q#	c #594F3F",
"R#	c #564D3D",
"S#	c #544C3B",
"T#	c #504838",
"U#	c #4B4535",
"V#	c #3C2C18",
"W#	c #040301",
"X#	c #383125",
"Y#	c #4A4437",
"Z#	c #4B4436",
"`#	c #484234",
" $	c #474134",
".$	c #484233",
"+$	c #484033",
"@$	c #3F3525",
"#$	c #120D06",
"$$	c #0B0906",
"%$	c #201A12",
"&$	c #30281D",
"*$	c #372F23",
"=$	c #40392B",
"-$	c #453E32",
";$	c #231B10",
"                                                                                                ",
"                                                                                                ",
"                                                                                                ",
"                                                                                                ",
"                                                                                                ",
"                                                                                                ",
"                                                                                                ",
"                                                                                                ",
"                                                                                                ",
"                                                                                                ",
"                                                      . + + @ # # $                             ",
"                                                  % & * = - ; > , ' & )                         ",
"                                                ! ~ , {           ] ^ / (                       ",
"                                              _ ! :                   # < [                     ",
"                                            } | 1                     ^ 2 3                     ",
"                                      4 5 6 7 8 9 0 a       b b       ^ c d                     ",
"                                    e f g h i j k l m n o b b         # p q                     ",
"                                  r s t u v w x y z A B C D E       F G H I                     ",
"                                J K L M N O x P Q R S T U V W X     Y Z `  .                    ",
"                              ..+.@.#.$.%.&.*.=.-.;.>.,.'.).!.~.{.].^./.(.                      ",
"                            _.:.L <.[.}.|.1.2.3.4.5.6.7.8.9.0.a.b.c.d.e.e.b b                   ",
"                            s f.#.g.h.i.j.k.l.m.n.o.p.q.r.s.t.u.v.w.x.y.b b b                   ",
"                          z.A.B.C.D.E.*.F.G.H.I.J.K.L.M.N.O.P.Q.R.S.T.U.b b b                   ",
"                        V.W.<.X.Y.Z.*.`. +.+++@+#+$+%+&+*+=+-+;+>+,+'+b b b b                   ",
"                      )+!+~+{+]+^+/+(+_+:+<+[+}+|+1+2+3+=+4+5+6+7+8+9+b b b                     ",
"                      W.0+a+a+b+c+d+e+f+g+h+i+j+k+&+3+l+m+n+o+p+q+r+s+b b b                     ",
"                    t+u+v+w+x+y+z+A+B+C+D+E+F+G+H+I+J+K+L+M+N+O+P+Q+R+b b b                     ",
"                  S+T+U+V+W+X+Y+Z+`+ @.@+@@@#@9.$@%@&@*@=@-@;@>@,@'@b b b b                     ",
"                  )@!@~@T+{@]@^@/@(@_@:@<@[@2+}@~.|@1@2@3@4@5@6@7@8@b b b b                     ",
"                    9@0@a@b@c@d@e@f@g@h@i@j@k@l@m@n@o@p@q@r@s@t@u@v@b b b                       ",
"                    w@x@y@z@A@B@A@C@D@E@F@G@H@I@J@K@L@M@N@O@P@Q@R@b b b b                       ",
"                    b S@T@U@V@W@X@Y@Z@`@ #.#+#n@@###$#%#&#*#=#-#;#b b b b                       ",
"                    b b >#,#'#)#!#~#{#]#^#/#(#_#:#<#[#}#|#1#2#3#b b b b                         ",
"                      b b 4#5#6#7#8#9#]@0#a#b#c#d#e#f#g#h#i#j#b b b b b                         ",
"                      b b b k#l#m#n#o#p#q#r#q#b#s#t#>@u#v#w#x#b b b b                           ",
"                        b b b y#z#A#B#C#D#E#F#G#H#I#J#K#w#L#b b b b b                           ",
"                          b b b b M#N#O#P#n#Q#R#S#T#U#9+V#W#b b b b                             ",
"                          b b b b b b X#{#Y#Z#`# $.$+$@$#$b b b b                               ",
"                            b b b b b b b $$%$&$*$=$-$;$b b b b b                               ",
"                                b b b b b b b b b b b b b b b b                                 ",
"                                  b b b b b b b b b b b b b b                                   ",
"                                      b b b b b b b b b b                                       ",
"                                              b b b b                                           ",
"                                                                                                ",
"                                                                                                ",
"                                                                                                ",
"                                                                                                ",
"                                                                                                "};
