/* XPM */
static char * network_xpm[] = {
"37 32 320 2",
"  	c None",
". 	c #3B3B3B",
"+ 	c #525354",
"@ 	c #576268",
"# 	c #4A4E51",
"$ 	c #444444",
"% 	c #4B4E51",
"& 	c #67767E",
"* 	c #95B0C2",
"= 	c #A5CDE6",
"- 	c #A7D3EE",
"; 	c #A4CEE9",
"> 	c #91B4CA",
", 	c #5B6972",
"' 	c #555657",
") 	c #585D61",
"! 	c #98B5C7",
"~ 	c #B9E1FA",
"{ 	c #B8E4FF",
"] 	c #B6E3FF",
"^ 	c #B4E2FF",
"/ 	c #B2E1FF",
"( 	c #AFE0FF",
"_ 	c #AAD9F6",
": 	c #778F9F",
"< 	c #54595C",
"[ 	c #535657",
"} 	c #9EB8C8",
"| 	c #BEE6FF",
"1 	c #BCE5FF",
"2 	c #BAE4FF",
"3 	c #B8E3FF",
"4 	c #B5E2FF",
"5 	c #B1E1FF",
"6 	c #ABDDFC",
"7 	c #778D9B",
"8 	c #707C83",
"9 	c #C3E7FF",
"0 	c #C0E7FF",
"a 	c #B7E3FF",
"b 	c #B3E2FF",
"c 	c #A7D6F3",
"d 	c #58656D",
"e 	c #97ACBA",
"f 	c #C5E8FF",
"g 	c #C2E7FF",
"h 	c #C0E6FF",
"i 	c #BDE5FF",
"j 	c #B9E4FF",
"k 	c #B3E1FF",
"l 	c #AEE0FF",
"m 	c #859FAE",
"n 	c #6B6D6E",
"o 	c #57595A",
"p 	c #454748",
"q 	c #4C4E4F",
"r 	c #636566",
"s 	c #5A5C5D",
"t 	c #A8C3D4",
"u 	c #C6E9FF",
"v 	c #C3E8FF",
"w 	c #C1E7FF",
"x 	c #BFE6FF",
"y 	c #BBE5FF",
"z 	c #B0DFFE",
"A 	c #839CAB",
"B 	c #2B2C2D",
"C 	c #484F53",
"D 	c #566167",
"E 	c #6B7E8A",
"F 	c #7F9DAF",
"G 	c #81AAC4",
"H 	c #8BB7D2",
"I 	c #91BDD9",
"J 	c #8CBAD7",
"K 	c #7EACC8",
"L 	c #7294A9",
"M 	c #4C5860",
"N 	c #555859",
"O 	c #46494C",
"P 	c #B6D1E2",
"Q 	c #C8E9FF",
"R 	c #B1DFFD",
"S 	c #91AEC1",
"T 	c #84A2B6",
"U 	c #9DC7E2",
"V 	c #A9DCFC",
"W 	c #A7DDFF",
"X 	c #A4DCFF",
"Y 	c #A2DBFF",
"Z 	c #A0DAFF",
"` 	c #9ED9FF",
" .	c #9BD8FF",
"..	c #9AD8FF",
"+.	c #97D7FF",
"@.	c #92CFF5",
"#.	c #5D7787",
"$.	c #4F5051",
"%.	c #686F73",
"&.	c #C1DDF0",
"*.	c #C9EAFF",
"=.	c #C7E9FF",
"-.	c #ADDFFF",
";.	c #ABDFFF",
">.	c #A9DEFF",
",.	c #A6DDFF",
"'.	c #9DD9FF",
").	c #99D8FF",
"!.	c #94D0F6",
"~.	c #526774",
"{.	c #535456",
"].	c #5F6468",
"^.	c #697279",
"/.	c #8E9EA9",
"(.	c #CCE9FC",
"_.	c #CBEBFF",
":.	c #C4E8FF",
"<.	c #ABDEFF",
"[.	c #A8DDFF",
"}.	c #A6DCFF",
"|.	c #A4DBFF",
"1.	c #9FDAFF",
"2.	c #99D7FF",
"3.	c #7FA6BF",
"4.	c #4E5051",
"5.	c #848C91",
"6.	c #B3C4CF",
"7.	c #CCE2F1",
"8.	c #D4EEFE",
"9.	c #D1EDFF",
"0.	c #CFECFF",
"a.	c #CDEBFF",
"b.	c #CAEAFF",
"c.	c #C8EAFF",
"d.	c #ACDFFF",
"e.	c #A5DCFF",
"f.	c #A3DBFF",
"g.	c #A1DBFF",
"h.	c #98D7FF",
"i.	c #8BC0E1",
"j.	c #4D4E4F",
"k.	c #515355",
"l.	c #B5C4CD",
"m.	c #DBF0FE",
"n.	c #DAF0FF",
"o.	c #D7EFFF",
"p.	c #D5EFFF",
"q.	c #D3EEFF",
"r.	c #CEECFF",
"s.	c #CCEBFF",
"t.	c #BBE4FF",
"u.	c #B0E0FF",
"v.	c #AEDFFF",
"w.	c #A1DAFF",
"x.	c #9EDAFF",
"y.	c #9CD9FF",
"z.	c #90C9EC",
"A.	c #555E64",
"B.	c #595B5D",
"C.	c #CBD8E1",
"D.	c #E0F3FF",
"E.	c #DDF2FF",
"F.	c #DBF1FF",
"G.	c #D9F0FF",
"H.	c #D5EEFF",
"I.	c #D3EDFF",
"J.	c #D0EDFF",
"K.	c #C5E9FF",
"L.	c #9CD8FF",
"M.	c #95CFF3",
"N.	c #637079",
"O.	c #4B4B4B",
"P.	c #ACB6BC",
"Q.	c #E3F4FF",
"R.	c #E2F3FF",
"S.	c #DFF3FF",
"T.	c #D4EEFF",
"U.	c #D2EEFF",
"V.	c #98D0F4",
"W.	c #626F78",
"X.	c #595B5C",
"Y.	c #D4E0E9",
"Z.	c #E5F5FF",
"`.	c #E1F3FF",
" +	c #DFF2FF",
".+	c #DDF1FF",
"++	c #DAF1FF",
"@+	c #D8F0FF",
"#+	c #D6EFFF",
"$+	c #CFEDFF",
"%+	c #CDECFF",
"&+	c #B0E1FF",
"*+	c #AADEFF",
"=+	c #96CDF0",
"-+	c #5C686F",
";+	c #747778",
">+	c #DEEAF3",
",+	c #E7F6FF",
"'+	c #E2F4FF",
")+	c #DEF2FF",
"!+	c #DCF1FF",
"~+	c #92C4E4",
"{+	c #545658",
"]+	c #707374",
"^+	c #DDE8EF",
"/+	c #E9F6FF",
"(+	c #E7F5FF",
"_+	c #E4F4FF",
":+	c #D8EFFF",
"<+	c #819EB1",
"[+	c #525353",
"}+	c #D1DAE0",
"|+	c #EAF7FF",
"1+	c #E6F5FF",
"2+	c #90B9D3",
"3+	c #4D575E",
"4+	c #ABB0B4",
"5+	c #ECF8FF",
"6+	c #E8F6FF",
"7+	c #D2EDFF",
"8+	c #A6D0EA",
"9+	c #88A9BE",
"0+	c #93B6CD",
"a+	c #7B94A5",
"b+	c #4E585E",
"c+	c #656768",
"d+	c #E1EAF0",
"e+	c #ECF7FF",
"f+	c #E9F7FF",
"g+	c #A6CFE9",
"h+	c #485259",
"i+	c #7B7F81",
"j+	c #E5EFF5",
"k+	c #E4F2FB",
"l+	c #DFEDF7",
"m+	c #A2CBE5",
"n+	c #5A6268",
"o+	c #535454",
"p+	c #A7ADB0",
"q+	c #A9B0B5",
"r+	c #6E7174",
"s+	c #90999E",
"t+	c #BDE6FF",
"u+	c #B2E1FE",
"v+	c #9CBFD5",
"w+	c #434648",
"x+	c #80888C",
"y+	c #B1E0FD",
"z+	c #718693",
"A+	c #A5A5A5",
"B+	c #888F94",
"C+	c #D0ECFF",
"D+	c #A7CEE6",
"E+	c #3D4245",
"F+	c #888E92",
"G+	c #60666A",
"H+	c #808486",
"I+	c #EAF5FC",
"J+	c #C9E7FA",
"K+	c #CAE8FC",
"L+	c #60676A",
"M+	c #6D6F70",
"N+	c #E5EFF6",
"O+	c #EBF7FF",
"P+	c #D1ECFE",
"Q+	c #91A2AC",
"R+	c #6D7980",
"S+	c #AFC9D8",
"T+	c #C7E7FC",
"U+	c #B1D6EE",
"V+	c #484D50",
"W+	c #4B4C4C",
"X+	c #CCD3D9",
"Y+	c #EDF8FF",
"Z+	c #E4F5FF",
"`+	c #96A6B1",
" @	c #565757",
".@	c #525455",
"+@	c #808F98",
"@@	c #C7E5F9",
"#@	c #BBE4FE",
"$@	c #7B909D",
"%@	c #656769",
"&@	c #DCE5EA",
"*@	c #909FA8",
"=@	c #4D5356",
"-@	c #8797A1",
";@	c #B7D5E7",
">@	c #BBE1F9",
",@	c #88A0AF",
"'@	c #6B6D6F",
")@	c #C5CCD1",
"!@	c #ECF7FE",
"~@	c #D8EFFE",
"{@	c #BFD2DE",
"]@	c #575A5C",
"^@	c #424649",
"/@	c #5D6469",
"(@	c #676E72",
"_@	c #5C6367",
":@	c #555759",
"<@	c #454647",
"[@	c #777B7E",
"}@	c #B9C1C6",
"|@	c #D2DDE4",
"1@	c #DAE8F0",
"2@	c #E1EFF9",
"3@	c #E2F2FC",
"4@	c #DEF0FB",
"5@	c #D4E6F3",
"6@	c #C6D8E4",
"7@	c #9CA8B0",
"8@	c #5A5D5F",
"9@	c #4C4C4C",
"0@	c #616365",
"a@	c #6E7274",
"b@	c #6B6F71",
"c@	c #6C7072",
"d@	c #6D7174",
"e@	c #404142",
"                          . + @ # $                                       ",
"                      % & * = - ; > , '                                   ",
"                    ) ! ~ { ] ^ / ( _ : <                                 ",
"                  [ } | 1 2 3 4 ^ 5 ( 6 7                                 ",
"                  8 9 0 | 1 2 a 4 b 5 ( c d                               ",
"                  e f g h i 1 j a 4 k 5 l m           n o p q r           ",
"                s t u v w x i y j ] ^ / z A B C D E F G H I J K L M N     ",
"                O P Q f v w x 1 y { ] ^ R S T U V W X Y Z `  ...+.@.#.$.  ",
"                %.&.*.=.f v w | 1 2 3 ] b / ( -.;.>.,.X Y Z '. .).+.!.~.  ",
"          {.].^./.(._.*.=.:.v 0 | 1 2 3 4 k 5 ( -.<.[.}.|.Y 1.'. .2.+.3.  ",
"      4.5.6.7.8.9.0.a.b.c.u :.g h i y j a 4 / 5 l d.>.[.e.f.g.1.'...h.i.j.",
"    k.l.m.n.o.p.q.9.r.s.b.c.u v g x i t.j a ^ / u.v.;.>.W e.f.w.x.y...z.A.",
"  B.C.D.E.F.G.o.H.I.J.r.s.b.Q K.v w x i 2 j ] ^ / u.-.<.>.W e.Y w.` L.M.N.",
"O.P.Q.R.S.E.F.G.o.T.U.J.r._.b.=.f v w x 1 2 3 ] b / ( -.<.>.,.X Y Z ` V.W.",
"X.Y.Z.Q.`. +.+++@+#+T.9.$+%+_.*.=.:.g 0 | 1 j a 4 b &+( d.*+[.,.X g.Z =+-+",
";+>+,+Z.'+`.)+!+n.@+#+q.9.0.a.b.*.u :.g 0 | y j a 4 / &+l d.*+[.}.f.g.~+{+",
"]+^+/+(+_+'+D.)+!+n.:+p.q.9.0.s.b.c.u :.w h i y j a ^ / &+l d.>.[.e.f.<+  ",
"[+}+|+/+1+_+R.D.)+F.n.o.H.I.9.r.s.b.c.u v w x i t.j ] ^ / u.-.<.>.W 2+3+  ",
"  4+5+|+6+1+_+`.S.E.F.@+o.T.7+J.r._.*.=.f 9 0 x 1 2 3 ] b 5 8+9+0+a+b+    ",
"  c+d+e+f+6+Z.Q.`. +.+++@+#+T.9.J.%+_.*.=.f g h | 1 2 a 4 b g+h+.         ",
"    i+j+e+/+k+l+Q.`. +!+n.@+#+T.9.0.%+_.c.=.:.g 0 | 1 j a 4 k m+n+        ",
"    o+c+p+q+r+s+Z.'+`.)+!+n.@+p.q.9.0.a.b.c.u :.g h t+y j a ^ u+v+w+      ",
"              x+1+_+R.S.)+F.G.o.p.q.J.r.s.b.=.u v w x i t.{ ] ^ y+z+      ",
"            A+B+6+1+_+`. +E.F.G.o.H.7+C+r.s.*.=.K.v w | i 2 3 ] ^ D+E+    ",
"              F+|+6+1+Q.`.S..+F.@+o.T.7+0.r._.*.=.f 9 h x 1 2 3 ] b G+    ",
"              H+I+/+6+Z.Q.`. +!+n.@+#+T.9.0.J+K+*.=.:.g h | 1 j a 4 L+    ",
"              M+N+O+/+(+Z.'+D.)+!+G.o.p.q.P+Q+R+S+T+u :.g x | y j U+V+    ",
"              W+X+Y+O+/+1+Z+R.D.)+F.G.o.p.q.`+ @.@+@@@K.:.w x i #@$@      ",
"                %@&@Y+O+6+1+_+R. +E.F.G.#+H.*@      =@-@;@v w >@,@ @      ",
"                  '@)@!@|+6+1+Q.`. +E.F.~@{@]@          ^@/@(@_@:@        ",
"                    <@[@}@|@1@2@3@4@5@6@7@8@                              ",
"                          9@0@a@b@c@d@e@                                  "};
