/* XPM */
static char * red_dot_xpm[] = {
"15 14 147 2",
"  	c None",
". 	c #A8A8A7",
"+ 	c #5F5F5D",
"@ 	c #242422",
"# 	c #101010",
"$ 	c #232323",
"% 	c #575759",
"& 	c #423D41",
"* 	c #9B9599",
"= 	c #C8BDC3",
"- 	c #D7CAD1",
"; 	c #CEBFC6",
"> 	c #8F8289",
", 	c #53484E",
"' 	c #695E64",
") 	c #75746F",
"! 	c #67444A",
"~ 	c #A89694",
"{ 	c #DBC7C6",
"] 	c #F2DDDC",
"^ 	c #F9E1E1",
"/ 	c #FAE0E1",
"( 	c #E7CDCE",
"_ 	c #9D8585",
": 	c #624A4A",
"< 	c #7C716D",
"[ 	c #4D2627",
"} 	c #974B55",
"| 	c #B77A75",
"1 	c #D1948F",
"2 	c #E2A5A0",
"3 	c #D89994",
"4 	c #D59691",
"5 	c #B87773",
"6 	c #93524E",
"7 	c #461E1C",
"8 	c #714F4D",
"9 	c #782C30",
"0 	c #B13F47",
"a 	c #A93832",
"b 	c #BA4943",
"c 	c #C1524B",
"d 	c #C5564F",
"e 	c #B94842",
"f 	c #AC3632",
"g 	c #AE3733",
"h 	c #7A3331",
"i 	c #7A5052",
"j 	c #541E1C",
"k 	c #9F3738",
"l 	c #A61E22",
"m 	c #C43932",
"n 	c #D24C43",
"o 	c #D04D43",
"p 	c #CC4C41",
"q 	c #DC594F",
"r 	c #D54F46",
"s 	c #BF342D",
"t 	c #B52620",
"u 	c #9D3735",
"v 	c #5D1F20",
"w 	c #51100C",
"x 	c #B53F3B",
"y 	c #CD3E36",
"z 	c #D65446",
"A 	c #E16354",
"B 	c #EA7261",
"C 	c #E3705D",
"D 	c #E26F5C",
"E 	c #DD6453",
"F 	c #D95749",
"G 	c #CD4539",
"H 	c #B23531",
"I 	c #5A0E0E",
"J 	c #67201A",
"K 	c #B94035",
"L 	c #DE5542",
"M 	c #E66A5E",
"N 	c #E87264",
"O 	c #F78978",
"P 	c #F68F7C",
"Q 	c #F58C79",
"R 	c #E87968",
"S 	c #E3695C",
"T 	c #D6564B",
"U 	c #CD3F3B",
"V 	c #6E1B17",
"W 	c #782F26",
"X 	c #C34B3B",
"Y 	c #E9674D",
"Z 	c #F4736D",
"` 	c #FF867E",
" .	c #FF968B",
"..	c #FD9184",
"+.	c #FF978A",
"@.	c #FE897F",
"#.	c #F97A73",
"$.	c #EE6763",
"%.	c #D13C36",
"&.	c #832C25",
"*.	c #876E63",
"=.	c #95332A",
"-.	c #FF6F6F",
";.	c #F28777",
">.	c #FF9B8D",
",.	c #FFA198",
"'.	c #FFA49D",
").	c #FFA09A",
"!.	c #FF9690",
"~.	c #FF8B82",
"{.	c #F0766B",
"].	c #A03837",
"^.	c #915650",
"/.	c #954641",
"(.	c #D75B5B",
"_.	c #FFA799",
":.	c #FFB49F",
"<.	c #F1B9A0",
"[.	c #F3B9A1",
"}.	c #FEB09C",
"|.	c #FD9185",
"1.	c #E4655E",
"2.	c #8E4443",
"3.	c #937C7B",
"4.	c #8A3C3C",
"5.	c #F07879",
"6.	c #FE958F",
"7.	c #FFAD9E",
"8.	c #FFBBA5",
"9.	c #FEBAA3",
"0.	c #F2A190",
"a.	c #D46F67",
"b.	c #AD3B3A",
"c.	c #7A5354",
"d.	c #573B30",
"e.	c #8E6764",
"f.	c #BD7D7D",
"g.	c #EF7C81",
"h.	c #D66569",
"i.	c #994845",
"j.	c #6E463C",
"k.	c #5F5242",
"l.	c #685D5D",
"m.	c #463F37",
"n.	c #474538",
"o.	c #4A4C3E",
"p.	c #525449",
"        . + @ # $ %           ",
"        & * = - ; > , '       ",
"    ) ! ~ { ] ^ / ( _ : <     ",
"    [ } | 1 2 2 3 4 5 6 7     ",
"  8 9 0 a b c d d e f g h i   ",
"  j k l m n o p q r s t u v   ",
"  w x y z A B C D E F G H I   ",
"  J K L M N O P Q R S T U V   ",
"  W X Y Z `  ...+.@.#.$.%.&.  ",
"  *.=.-.;.>.,.'.).!.~.{.].^.  ",
"    /.(.~._.:.<.[.}.|.1.2.    ",
"    3.4.5.6.7.8.9.0.a.b.c.    ",
"        d.e.f.g.h.i.j.k.      ",
"          l.m.n.o.p.          "};
