/* XPM */
static const char * user_xpm[] = {
"13 16 56 1",
" 	c None",
".	c #070000",
"+	c #0A0000",
"@	c #0B0000",
"#	c #080000",
"$	c #060000",
"%	c #E9D1B9",
"&	c #F1CFAC",
"*	c #F4CEA7",
"=	c #F5CEA7",
"-	c #F5CDA9",
";	c #F0CFAE",
">	c #E6D1BC",
",	c #EAD0B5",
"'	c #E6D2BA",
")	c #0F0000",
"!	c #F9CDA0",
"~	c #FFCC97",
"{	c #FFCB99",
"]	c #FBCCA0",
"^	c #714F2C",
"/	c #190000",
"(	c #744E27",
"_	c #EECFB0",
":	c #FCCC9C",
"<	c #F2CFA9",
"[	c #F0CFB0",
"}	c #F9CDA6",
"|	c #230000",
"1	c #FECA98",
"2	c #F8CCA5",
"3	c #FECB9C",
"4	c #F9CCA2",
"5	c #FFCB9B",
"6	c #FECC9B",
"7	c #FFCC9A",
"8	c #0D0000",
"9	c #040000",
"0	c #FBCC9E",
"a	c #E7D2BD",
"b	c #FACB9D",
"c	c #1F0000",
"d	c #EBD0B5",
"e	c #E3D2C0",
"f	c #FACEA1",
"g	c #F4CEA9",
"h	c #160000",
"i	c #110000",
"j	c #FECC99",
"k	c #FFCC9C",
"l	c #F5CEA5",
"m	c #EDCFB3",
"n	c #0E0000",
"o	c #0C0000",
"p	c #EAD2BA",
"q	c #EAD0B9",
" .++@+@##$$$ ",
"@%&*=*-;%>,'$",
");!~{{{]^/(_#",
");!~{{~:=-!<+",
")[!~{{~:}|:*@",
")[!{{{1:2|:*@",
")[!{{{{3443*+",
")[!{{{{5335*@",
")[!{{{{{{64_#",
")[!{{{7{~!/89",
")[!{{{{60<a. ",
")[!~{{7bcde. ",
")[f~{{{0ghi+ ",
")[!j~~{k0lmn ",
"op;**====&q8 ",
" .#++@@@@+.  "};
