/* XPM */
static char * warning_small_xpm[] = {
"16 16 143 2",
"  	c None",
". 	c #D12411",
"+ 	c #9A1A0D",
"@ 	c #DF2611",
"# 	c #A71C0E",
"$ 	c #A6250E",
"% 	c #6D130A",
"& 	c #DB2511",
"* 	c #AE1E0E",
"= 	c #B8500F",
"- 	c #B95610",
"; 	c #9D1C0E",
"> 	c #C42210",
", 	c #AC2F0F",
"' 	c #DFB012",
") 	c #DBA612",
"! 	c #A11D0F",
"~ 	c #7C160C",
"{ 	c #DE2612",
"] 	c #A41C0E",
"^ 	c #C67B10",
"/ 	c #695307",
"( 	c #B68D0F",
"_ 	c #BC5B11",
": 	c #9B1C10",
"< 	c #2F0804",
"[ 	c #B21E0F",
"} 	c #B3410F",
"| 	c #99790C",
"1 	c #070500",
"2 	c #755B09",
"3 	c #D9A213",
"4 	c #A01D11",
"5 	c #7A160D",
"6 	c #CF2411",
"7 	c #A31C0E",
"8 	c #82670A",
"9 	c #080600",
"0 	c #896A0C",
"a 	c #DCAB15",
"b 	c #BA5B13",
"c 	c #9A1D11",
"d 	c #2E0805",
"e 	c #CA2211",
"f 	c #AA1D0F",
"g 	c #BD5D10",
"h 	c #DFB112",
"i 	c #8A6B0B",
"j 	c #191301",
"k 	c #8F6F0D",
"l 	c #DBAA15",
"m 	c #D7A115",
"n 	c #9F1E12",
"o 	c #71150D",
"p 	c #C62211",
"q 	c #AE3710",
"r 	c #DEAD12",
"s 	c #725809",
"t 	c #090700",
"u 	c #83660C",
"v 	c #DBAA16",
"w 	c #DAAA16",
"x 	c #B95B14",
"y 	c #961C12",
"z 	c #E42915",
"A 	c #A81D0F",
"B 	c #CC8211",
"C 	c #DEAC13",
"D 	c #7D610B",
"E 	c #1F1802",
"F 	c #9E7A0F",
"G 	c #DAAA17",
"H 	c #D6A017",
"I 	c #9D1E14",
"J 	c #5B110C",
"K 	c #AE3810",
"L 	c #DEAE12",
"M 	c #DCAB14",
"N 	c #D4A514",
"O 	c #93720E",
"P 	c #D6A615",
"Q 	c #D8A919",
"R 	c #B75B16",
"S 	c #8A1B12",
"T 	c #E32915",
"U 	c #A71E0F",
"V 	c #CB8111",
"W 	c #DDAB14",
"X 	c #B38B11",
"Y 	c #130E01",
"Z 	c #B88F12",
"` 	c #D8A918",
" .	c #CE8F18",
"..	c #9A1E15",
"+.	c #410E0A",
"@.	c #C72312",
"#.	c #AC3510",
"$.	c #DDAB13",
"%.	c #AB8510",
"&.	c #2E2404",
"*.	c #BF9514",
"=.	c #D7A819",
"-.	c #D7A81A",
";.	c #A53315",
">.	c #731710",
",.	c #A91E0F",
"'.	c #A21D10",
").	c #A11D10",
"!.	c #A11D11",
"~.	c #A62C11",
"{.	c #B24A13",
"].	c #B95B13",
"^.	c #BD6415",
"/.	c #BC6415",
"(.	c #BB6416",
"_.	c #BA6417",
":.	c #BA6318",
"<.	c #AA3F16",
"[.	c #8D1C15",
"}.	c #300905",
"|.	c #460C07",
"1.	c #5F110A",
"2.	c #72150C",
"3.	c #7E170E",
"4.	c #88190F",
"5.	c #891A10",
"6.	c #911B11",
"7.	c #931C12",
"8.	c #921C13",
"9.	c #921D13",
"0.	c #911D14",
"a.	c #901D15",
"b.	c #891B14",
"c.	c #2A0907",
"d.	c #010101",
"e.	c #020202",
"f.	c #0C0303",
"g.	c #110403",
"h.	c #1A0604",
"i.	c #200705",
"j.	c #1F0705",
"k.	c #1B0605",
"l.	c #080202",
"              . +               ",
"            @ # $ %             ",
"          & * = - ;             ",
"          > , ' ) ! ~           ",
"        { ] ^ / ( _ : <         ",
"        [ } | 1 2 3 4 5         ",
"      6 7 ) 8 9 0 a b c d       ",
"    e f g h i j k l m n o       ",
"    p q h r s t u v w x y       ",
"  z A B r C D E F w G H I J     ",
"  p K L C M N O P w G Q R S     ",
"T U V C W a X Y Z G ` Q  ...+.  ",
"@.#.C $.a l %.&.*.` Q =.-.;.>.  ",
",.'.).!.~.{.].^./.(._._.:.<.[.  ",
"}.|.1.2.3.4.5.6.7.8.9.0.0.a.b.c.",
"  d.e.e.e.f.g.h.i.i.i.j.j.j.k.l."};
