/* XPM */
static char * white_dot_xpm[] = {
"15 14 115 2",
"  	c None",
". 	c #A4A4A3",
"+ 	c #5D5D5C",
"@ 	c #292929",
"# 	c #0F0F0F",
"$ 	c #2C2C2C",
"% 	c #5D5D5D",
"& 	c #AEADAD",
"* 	c #696769",
"= 	c #585858",
"- 	c #9C9C9C",
"; 	c #C5C5C5",
"> 	c #D7D7D7",
", 	c #CACACA",
"' 	c #A0A0A0",
") 	c #4B4B4B",
"! 	c #6B6D6E",
"~ 	c #747474",
"{ 	c #5B5B5B",
"] 	c #A9A9A9",
"^ 	c #DDDDDD",
"/ 	c #E8E8E8",
"( 	c #F9F9F9",
"_ 	c #ECECEC",
": 	c #D9D9D9",
"< 	c #AFAFAF",
"[ 	c #757576",
"} 	c #9C9C9B",
"| 	c #414141",
"1 	c #7B7B7B",
"2 	c #B9B9B9",
"3 	c #D4D4D4",
"4 	c #D3D3D3",
"5 	c #BBBBBB",
"6 	c #777777",
"7 	c #474747",
"8 	c #959494",
"9 	c #4E4E4E",
"0 	c #6C6C6C",
"a 	c #ABABAB",
"b 	c #A2A2A2",
"c 	c #B2B2B2",
"d 	c #B5B5B5",
"e 	c #C1C1C1",
"f 	c #BABABA",
"g 	c #A6A6A6",
"h 	c #737373",
"i 	c #454545",
"j 	c #999999",
"k 	c #AAAAAA",
"l 	c #B0B0B0",
"m 	c #C0C0C0",
"n 	c #C7C7C7",
"o 	c #C2C2C2",
"p 	c #B6B6B6",
"q 	c #8F8F8F",
"r 	c #595959",
"s 	c #C9C9C9",
"t 	c #CFCFCF",
"u 	c #D5D5D5",
"v 	c #D8D8D8",
"w 	c #B1B1B1",
"x 	c #5E5E5E",
"y 	c #676767",
"z 	c #E9E9E9",
"A 	c #E2E2E2",
"B 	c #E6E6E6",
"C 	c #E0E0E0",
"D 	c #D2D2D2",
"E 	c #D0D0D0",
"F 	c #C3C3C3",
"G 	c #626262",
"H 	c #6D6D6D",
"I 	c #D1D1D1",
"J 	c #EEEEEE",
"K 	c #F3F3F3",
"L 	c #F7F7F7",
"M 	c #F5F5F5",
"N 	c #EFEFEF",
"O 	c #DADADA",
"P 	c #767676",
"Q 	c #7C7C7C",
"R 	c #E7E7E7",
"S 	c #FBFBFB",
"T 	c #FFFFFF",
"U 	c #FAFAFA",
"V 	c #EDEDED",
"W 	c #A7A7A7",
"X 	c #7A7A7A",
"Y 	c #888888",
"Z 	c #898989",
"` 	c #CCCCCC",
" .	c #F6F6F6",
"..	c #FDFDFD",
"+.	c #FCFCFC",
"@.	c #878787",
"#.	c #8C8C8C",
"$.	c #9E9E9E",
"%.	c #6B6B6B",
"&.	c #E4E4E4",
"*.	c #939393",
"=.	c #797A7A",
"-.	c #565656",
";.	c #EAEAEA",
">.	c #9F9F9F",
",.	c #727272",
"'.	c #5A5A5A",
").	c #7E7F7E",
"!.	c #898B8B",
"~.	c #4D4D4D",
"{.	c #434343",
"].	c #424242",
"^.	c #4A4A4A",
"/.	c #656565",
"(.	c #8A8A8B",
"        . + @ # $ % &         ",
"      * = - ; > , ' ) !       ",
"    ~ { ] ^ / ( _ : < % [     ",
"  } | 1 2 3 : : > 4 5 6 7 8   ",
"  9 0 a b c 5 d e f g a h 9   ",
"  i j k l m m n o p p g q )   ",
"  r l a s t u v : t t c w x   ",
"  y m s v : z A B C D E F G   ",
"  H 2 I A J K L M N B O p P   ",
"  Q ] C R S T U T U J V W X   ",
"  Y Z `  ...+.T  .T .., @.#.  ",
"  $.%.q O S T T T T &.*.H }   ",
"    =.-.~ g I ;.D >.,.'.).    ",
"      !.G ~.| {.].^./.(.      "};
