/* XPM */
static char * yellow_dot_xpm[] = {
"15 14 121 2",
"  	c None",
". 	c #A2A191",
"+ 	c #5B5A51",
"@ 	c #272624",
"# 	c #0D0D0D",
"$ 	c #2A2927",
"% 	c #5B5A52",
"& 	c #ACAA9A",
"* 	c #67645D",
"= 	c #56554E",
"- 	c #9A998A",
"; 	c #C3C2B0",
"> 	c #D5D4C2",
", 	c #C8C7B5",
"' 	c #9E9D8E",
") 	c #494842",
"! 	c #696A61",
"~ 	c #727167",
"{ 	c #595851",
"] 	c #A7A696",
"^ 	c #DBDAC8",
"/ 	c #E6E5D3",
"( 	c #F7F6E4",
"_ 	c #EAE9D7",
": 	c #D7D6C4",
"< 	c #ADAC9B",
"[ 	c #737269",
"} 	c #949150",
"| 	c #393621",
"1 	c #737040",
"2 	c #B1AE60",
"3 	c #CCC978",
"4 	c #D1CE7D",
"5 	c #CFCC7B",
"6 	c #CBC877",
"7 	c #B3B061",
"8 	c #6F6C3E",
"9 	c #3F3C25",
"0 	c #8D894D",
"a 	c #464328",
"b 	c #646138",
"c 	c #A3A059",
"d 	c #9A9754",
"e 	c #AAA75C",
"f 	c #ADAA5E",
"g 	c #B9B665",
"h 	c #B2AF61",
"i 	c #9E9B56",
"j 	c #6B683B",
"k 	c #3D3A23",
"l 	c #918E4F",
"m 	c #A29F58",
"n 	c #A8A55B",
"o 	c #B8B564",
"p 	c #BFBC6B",
"q 	c #BAB766",
"r 	c #AEAB5E",
"s 	c #87844A",
"t 	c #434027",
"u 	c #514E2E",
"v 	c #C1BE6D",
"w 	c #C7C473",
"x 	c #CDCA79",
"y 	c #D0CD7C",
"z 	c #A9A65C",
"A 	c #565331",
"B 	c #5F5C35",
"C 	c #E1DE8D",
"D 	c #DAD786",
"E 	c #DEDB8A",
"F 	c #D8D584",
"G 	c #CAC776",
"H 	c #C8C574",
"I 	c #BBB867",
"J 	c #5A5733",
"K 	c #656238",
"L 	c #C9C675",
"M 	c #E6E392",
"N 	c #EBE897",
"O 	c #EFEC9B",
"P 	c #EDEA99",
"Q 	c #E7E493",
"R 	c #D2CF7E",
"S 	c #6E6B3D",
"T 	c #747140",
"U 	c #A19E58",
"V 	c #DFDC8B",
"W 	c #F3F09F",
"X 	c #F7F4A3",
"Y 	c #F2EF9E",
"Z 	c #E5E291",
"` 	c #9F9C57",
" .	c #726F3F",
"..	c #807D46",
"+.	c #817E47",
"@.	c #C4C170",
"#.	c #EEEB9A",
"$.	c #F5F2A1",
"%.	c #F4F1A0",
"&.	c #C2BF6E",
"*.	c #7F7C46",
"=.	c #848149",
"-.	c #969352",
";.	c #636037",
">.	c #DCD988",
",.	c #8B884C",
"'.	c #716F3F",
").	c #4E4B2C",
"!.	c #6C693C",
"~.	c #E2DF8E",
"{.	c #979452",
"].	c #6A673B",
"^.	c #524F2E",
"/.	c #767441",
"(.	c #818048",
"_.	c #454228",
":.	c #3B3822",
"<.	c #3A3722",
"[.	c #423F26",
"}.	c #5D5A34",
"|.	c #827F48",
"        . + @ # $ % &         ",
"      * = - ; > , ' ) !       ",
"    ~ { ] ^ / ( _ : < % [     ",
"  } | 1 2 3 4 4 5 6 7 8 9 0   ",
"  a b c d e 7 f g h i c j a   ",
"  k l m n o o p q r r i s t   ",
"  u n c v w x y 4 w w e z A   ",
"  B o v y 4 C D E F G H I J   ",
"  K 2 L D M N O P Q E R r S   ",
"  T U F V W X Y X Y M Z `  .  ",
"  ..+.@.#.$.%.X #.X $.&.*.=.  ",
"  -.;.s R W X X X X >.,.K }   ",
"    '.).!.i L ~.G {.].^./.    ",
"      (.J _.| :.<.[.}.|.      "};
